<?xml version="1.0" encoding="UTF-8"?>
<svg version="1.1" xmlns="http://www.w3.org/2000/svg" width="480" height="480">
<path d="M0 0 C2.33739702 -0.00323107 4.67479162 -0.00906568 7.01217651 -0.01725769 C13.26982031 -0.03160129 19.52680636 -0.00910078 25.78437066 0.02160144 C31.70161777 0.0455374 37.61881728 0.04308123 43.53610399 0.04177547 C55.24895417 0.04028395 66.96155579 0.06748796 78.67431641 0.11132812 C89.99988319 0.15369598 101.32523181 0.17483419 112.65087891 0.17285156 C113.70044524 0.17267176 113.70044524 0.17267176 114.77121494 0.17248832 C115.81910702 0.17230673 115.81910702 0.17230673 116.88816863 0.17212147 C130.51280614 0.16994181 144.1373326 0.1909151 157.76193976 0.21846128 C161.66581925 0.22483287 165.56968185 0.22698164 169.47356606 0.22817802 C175.61263379 0.23120368 181.7514756 0.24961793 187.8904686 0.27967644 C190.13453347 0.28839313 192.37862434 0.29213944 194.62270546 0.29039383 C205.9534185 0.28491754 216.39316354 0.42100025 227.31518555 3.72875977 C228.73069372 4.07853396 230.14726363 4.42405895 231.56518555 4.76391602 C248.51999082 9.40882621 264.40260308 16.93550459 278.31518555 27.72875977 C279.24202148 28.43516602 280.16885742 29.14157227 281.1237793 29.86938477 C308.4297702 51.40432227 325.86590784 80.85393473 333.31518555 114.72875977 C333.48592339 115.39634686 333.65666122 116.06393394 333.83257294 116.75175095 C334.51614105 120.96835916 334.47385355 125.12170631 334.48254395 129.38702393 C334.48833733 130.36596013 334.49413072 131.34489633 334.50009966 132.35349727 C334.5181534 135.6377597 334.52902965 138.92200498 334.53979492 142.20629883 C334.55097243 144.56053319 334.56248583 146.91476599 334.5743103 149.26899719 C334.61087535 157.01076938 334.63617993 164.7525614 334.65893555 172.49438477 C334.66288141 173.81428123 334.66682728 175.13417768 334.67089272 176.49407101 C334.70763359 188.96066844 334.73891346 201.42727534 334.76000214 213.89390945 C334.76497056 216.78042871 334.77001497 219.66694782 334.77514648 222.5534668 C334.77705249 223.62946798 334.77705249 223.62946798 334.778997 224.72720656 C334.80027558 236.30139195 334.84918827 247.87529007 334.90939063 259.44933155 C334.97086572 271.3678482 335.00524117 283.28621794 335.01447535 295.20489097 C335.02034285 301.88207344 335.03850408 308.55866615 335.08586121 315.2357254 C335.1299908 321.53637092 335.13987486 327.83620971 335.1252327 334.13698387 C335.12555754 336.42925363 335.13752956 338.72156169 335.16308212 341.01368904 C335.56376248 379.01354239 319.48592207 414.42229227 293.06518555 441.41625977 C268.56982066 465.64517231 234.17656009 480.84255509 199.63783264 480.88938904 C198.22071138 480.89702077 198.22071138 480.89702077 196.77496141 480.90480667 C193.62438968 480.92044171 190.47384074 480.92903271 187.32324219 480.9375 C185.05723428 480.94704625 182.7912278 480.95693774 180.52522278 480.96714783 C173.09194656 480.99846279 165.65865943 481.01880115 158.2253418 481.03735352 C156.95682271 481.04065084 155.68830362 481.04394816 154.38134456 481.0473454 C142.39557437 481.07813835 130.40980247 481.10498037 118.42400455 481.12176418 C115.65246128 481.12571268 112.88091809 481.1297158 110.109375 481.13378906 C109.42065292 481.13479742 108.73193083 481.13580578 108.02233838 481.1368447 C96.90426619 481.15379499 85.78641878 481.19484557 74.66845591 481.24581205 C63.2108762 481.29789568 51.75344703 481.3262663 40.29574674 481.33396107 C33.88024663 481.33888513 27.46514588 481.35365327 21.04976082 481.39370537 C14.99782106 481.43098951 8.94650181 481.43884627 2.89446831 481.42569923 C0.69412102 481.42575251 -1.50625676 481.43576598 -3.70649719 481.45745087 C-26.65627153 481.67122103 -48.06466493 476.87488513 -68.68481445 466.72875977 C-69.37865234 466.39005859 -70.07249023 466.05135742 -70.78735352 465.70239258 C-103.34000594 449.46461759 -127.61111204 419.79523082 -139.4387207 385.67016602 C-141.57848478 379.12549055 -143.14974799 372.43581937 -144.68481445 365.72875977 C-144.86287182 365.08819527 -145.04092918 364.44763077 -145.22438222 363.78765523 C-145.71106628 361.61137059 -145.81130851 359.68676017 -145.81344891 357.45830727 C-145.81667335 356.60757814 -145.8198978 355.75684901 -145.82321995 354.88034022 C-145.82167135 353.95058387 -145.82012275 353.02082752 -145.81852722 352.06289673 C-145.82079278 351.0714092 -145.82305833 350.07992167 -145.82539254 349.05838907 C-145.83173701 345.72665844 -145.83090289 342.39496844 -145.83007812 339.06323242 C-145.83306933 336.67831876 -145.83647177 334.29340558 -145.84025574 331.90849304 C-145.84818411 326.09703482 -145.85131056 320.28558899 -145.85186812 314.47412564 C-145.85234329 309.75030038 -145.85439812 305.02647847 -145.85756874 300.30265427 C-145.86637513 286.90965974 -145.87098813 273.51667322 -145.87023827 260.12367578 C-145.87019831 259.40167381 -145.87015835 258.67967184 -145.87011719 257.93579102 C-145.87007631 257.21290749 -145.87003543 256.49002397 -145.86999331 255.74523489 C-145.86958682 244.02894957 -145.87915693 232.31269639 -145.89325555 220.59642036 C-145.90761779 208.56615045 -145.91452582 196.53589621 -145.91366178 184.5056175 C-145.91332976 177.75156063 -145.91607901 170.99753746 -145.92683983 164.24348831 C-145.93650471 157.89223032 -145.93661103 151.54104357 -145.9293232 145.1897831 C-145.92827536 142.85731592 -145.93065196 140.52484434 -145.93668365 138.19238472 C-145.94437839 135.01103548 -145.93977534 131.82993383 -145.93205261 128.64859009 C-145.93719618 127.72329518 -145.94233974 126.79800027 -145.94763917 125.84466612 C-145.92185458 121.04554519 -145.48373862 117.25007296 -143.68481445 112.72875977 C-143.29019514 110.69079427 -142.916548 108.64869716 -142.55981445 106.60375977 C-137.30561896 81.62652892 -123.43096979 60.31314836 -106.00805664 42.11499023 C-104.93265403 40.98839687 -103.87274164 39.84703217 -102.81762695 38.70141602 C-76.26298559 10.62747925 -37.5400465 -0.30843324 0 0 Z M-48.93481445 23.85375977 C-49.74128418 24.07257812 -50.54775391 24.29139648 -51.37866211 24.5168457 C-75.14474685 31.248469 -97.89066894 46.23576061 -110.34106445 68.12329102 C-110.78450195 68.9830957 -111.22793945 69.84290039 -111.68481445 70.72875977 C-112.21075195 71.70200195 -112.73668945 72.67524414 -113.27856445 73.67797852 C-121.56732067 89.54444569 -124.84112953 104.76078823 -124.82525635 122.52929688 C-124.82822747 123.58263214 -124.83119859 124.63596741 -124.83425975 125.72122192 C-124.84289596 129.2328573 -124.84445069 132.74445838 -124.84594727 136.25610352 C-124.85057907 138.78154065 -124.85560422 141.30697709 -124.86099243 143.83241272 C-124.87408436 150.68197659 -124.88059268 157.53152927 -124.88500309 164.38110352 C-124.88777432 168.66601687 -124.89201326 172.950928 -124.89650726 177.23583984 C-124.90869378 189.12234352 -124.91899402 201.00884543 -124.92238235 212.89535522 C-124.92260192 213.65487389 -124.92282149 214.41439256 -124.92304771 215.19692695 C-124.92326598 215.95816277 -124.92348426 216.71939859 -124.92370915 217.50370216 C-124.9241526 219.04600652 -124.92459917 220.58831088 -124.92504883 222.13061523 C-124.92527026 222.89563567 -124.92549169 223.6606561 -124.92571983 224.44885898 C-124.92966332 236.82992741 -124.9471064 249.21093682 -124.97040835 261.59198248 C-124.99419272 274.33324165 -125.00658743 287.07447128 -125.00775027 299.81575298 C-125.00866311 306.95743212 -125.01431595 314.09903435 -125.03256989 321.24069214 C-125.04969698 327.96470861 -125.0511709 334.6885551 -125.04243088 341.41259575 C-125.04166436 343.86945423 -125.04595189 346.32632075 -125.05588913 348.78315926 C-125.18084035 381.62254417 -118.37293832 408.77221523 -94.68481445 432.72875977 C-94.02481445 432.72875977 -93.36481445 432.72875977 -92.68481445 432.72875977 C-92.68481445 433.38875977 -92.68481445 434.04875977 -92.68481445 434.72875977 C-81.75629164 444.79647428 -68.70928766 451.18061559 -54.80981445 456.10375977 C-54.16439697 456.34255859 -53.51897949 456.58135742 -52.85400391 456.82739258 C-37.27351647 461.9903787 -19.69154182 461.01888646 -3.51269531 460.98754883 C-1.13371169 460.99026507 1.2452711 460.99382953 3.62425232 460.99816895 C10.03323567 461.0072194 16.442154 461.00377937 22.85113835 460.99741077 C26.86524106 460.99437349 30.87932807 460.9945341 34.89343071 460.9963913 C35.56327174 460.99669776 36.23311278 460.99700423 36.92325203 460.99731998 C38.28471499 460.99795954 39.64617794 460.99860797 41.00764089 460.99926516 C53.72316806 461.00494512 66.43866622 460.99844722 79.15418863 460.98766443 C90.02728608 460.978729 100.90034081 460.98028545 111.7734375 460.98950195 C124.45020083 461.00024254 137.12693886 461.00439816 149.80370611 460.99827743 C151.15938945 460.99764044 152.5150728 460.99701169 153.87075615 460.9963913 C154.87086768 460.99592847 154.87086768 460.99592847 155.89118348 460.99545629 C160.55417803 460.99374083 165.21715144 460.9967191 169.88014412 461.0013504 C176.17335347 461.0071654 182.46648282 461.00305156 188.75968361 460.99156189 C191.05690122 460.98893751 193.35412567 460.98964193 195.65134048 460.99408722 C229.5203284 461.05353962 259.66024442 455.64568449 284.7019043 431.34204102 C285.56428711 430.4796582 286.42666992 429.61727539 287.31518555 428.72875977 C287.98163086 428.06231445 288.64807617 427.39586914 289.3347168 426.70922852 C294.6221967 421.03980876 298.45739679 414.41220958 302.31518555 407.72875977 C302.71737305 407.04040039 303.11956055 406.35204102 303.53393555 405.64282227 C314.73173209 384.96302058 314.46613983 361.85193813 314.46044922 339.03833008 C314.46344486 336.63890531 314.46684832 334.23948103 314.47062683 331.84005737 C314.47851708 326.02099257 314.48167966 320.20194011 314.48223921 314.38287023 C314.48271641 309.64740387 314.4847813 304.91194083 314.48793983 300.17647552 C314.49673402 286.71539024 314.50136109 273.2543129 314.50060936 259.79322472 C314.5005694 259.06941222 314.50052945 258.34559973 314.50048828 257.59985352 C314.5004474 256.87514527 314.50040652 256.15043702 314.5003644 255.40376791 C314.49995816 243.66564749 314.50952531 231.92755917 314.52362665 220.18944803 C314.53803128 208.10237595 314.54489461 196.0153195 314.54403287 183.92823863 C314.54370234 177.15609678 314.54638615 170.38398861 314.55721092 163.61185455 C314.56693882 157.23911936 314.56693906 150.86645498 314.55969429 144.49371719 C314.55865429 142.16544363 314.56097625 139.83716555 314.56705475 137.50889969 C314.66955418 114.53705141 314.66955418 114.53705141 310.12768555 92.10375977 C309.91265381 91.403396 309.69762207 90.70303223 309.47607422 89.98144531 C304.09966736 73.24157113 293.90671448 57.07245891 280.31518555 45.72875977 C279.65518555 45.72875977 278.99518555 45.72875977 278.31518555 45.72875977 C278.31518555 45.06875977 278.31518555 44.40875977 278.31518555 43.72875977 C276.11967829 42.04037521 273.93849139 40.49559355 271.62768555 38.97875977 C270.94722168 38.53064941 270.26675781 38.08253906 269.56567383 37.62084961 C245.87179959 22.34141617 220.18308714 20.25393166 192.74487305 20.37231445 C190.34763006 20.37152154 187.95038721 20.36941806 185.55314636 20.36611938 C179.10532073 20.36103181 172.65765758 20.37442524 166.20985794 20.39164639 C160.12330933 20.40664274 154.03675324 20.40543448 147.95018971 20.40602294 C135.89685874 20.40770302 123.84358851 20.42342366 111.7902832 20.44750977 C100.12589005 20.47080134 88.46153536 20.48494143 76.79711914 20.48852539 C75.71745723 20.48885954 75.71745723 20.48885954 74.61598396 20.48920044 C73.16570266 20.48964308 71.71542136 20.49008511 70.26514006 20.49052651 C69.19172196 20.49085586 69.19172196 20.49085586 68.09661865 20.49119186 C67.38267205 20.49140785 66.66872544 20.49162384 65.93314409 20.49184637 C54.76555381 20.49555488 43.59796961 20.50691 32.43038607 20.51932226 C28.40041924 20.52373898 24.37045297 20.52718478 20.34048468 20.52994439 C13.35196154 20.53481234 6.36347076 20.5449808 -0.62503624 20.56077194 C-2.93886743 20.5652721 -5.25270253 20.56812816 -7.56653786 20.56917953 C-28.44304035 20.36278006 -28.44304035 20.36278006 -48.93481445 23.85375977 Z " fill="#05A9FC" transform="translate(145.684814453125,-0.728759765625)"/>
<path d="M0 0 C1.40622861 0.00171522 2.81246041 0.00164125 4.21868896 -0.00012207 C7.14708588 0.00152068 10.07470748 0.020031 13.00292969 0.05175781 C16.74423646 0.09158067 20.48453823 0.09577966 24.226017 0.08829498 C27.12238675 0.08521827 30.01853313 0.09736811 32.91484833 0.11442566 C34.29425404 0.12142098 35.67368503 0.12458443 37.05310822 0.12373352 C38.98111496 0.12554263 40.90906301 0.14926 42.83691406 0.17382812 C43.93038147 0.18224731 45.02384888 0.1906665 46.15045166 0.19934082 C51.71787762 0.91137016 55.49093027 3.3555134 59.046875 7.59375 C59.63082031 8.274375 60.21476562 8.955 60.81640625 9.65625 C63.50406329 13.32864089 63.35629313 16.58673056 63.34790039 20.99291992 C63.34804642 21.63709366 63.34819244 22.2812674 63.3483429 22.94496155 C63.34764695 25.07141502 63.33986948 27.1977806 63.33203125 29.32421875 C63.33016594 30.79966687 63.32874257 32.27511561 63.32774353 33.75056458 C63.32392726 37.63200595 63.31410456 41.51340985 63.30303955 45.39483643 C63.29280631 49.35631808 63.28824181 53.31780581 63.28320312 57.27929688 C63.2724815 65.05079833 63.25541575 72.82226891 63.234375 80.59375 C64.45466904 80.58375725 64.45466904 80.58375725 65.69961548 80.57356262 C73.37955583 80.51336366 81.05938121 80.46773111 88.73949623 80.43831348 C92.68759887 80.42268096 96.63550597 80.4014872 100.58349609 80.36743164 C104.39604989 80.33475149 108.208416 80.31687883 112.02109909 80.30911827 C113.47311735 80.30359023 114.92512574 80.29279526 116.37706375 80.27655983 C118.41647505 80.25466954 120.45511836 80.25178777 122.49462891 80.25317383 C123.65378815 80.24651199 124.81294739 80.23985016 126.00723267 80.23298645 C131.26996309 80.82130922 135.16286499 82.93411265 138.484375 87.03125 C138.96390625 87.60746094 139.4434375 88.18367188 139.9375 88.77734375 C142.81525583 92.80793549 143.48983958 95.70651811 143.52490234 100.68823242 C143.53766205 101.92018845 143.55042175 103.15214447 143.56356812 104.4214325 C143.56662691 105.76402631 143.56885406 107.10662224 143.5703125 108.44921875 C143.57674504 109.83441809 143.58347374 111.21961609 143.59048462 112.60481262 C143.60245283 115.50911605 143.60616621 118.41330061 143.60498047 121.31762695 C143.60477794 125.0184955 143.63201253 128.71859043 143.66652489 132.41927624 C143.68889789 135.28226639 143.69281477 138.1450739 143.69176102 141.00814247 C143.69523523 143.02926459 143.71684223 145.05032968 143.73886108 147.07133484 C143.6856508 157.86096117 141.39577637 164.96848904 134.02734375 172.87109375 C128.35701119 178.31906033 122.32064203 180.83411828 114.49298096 180.86117554 C112.81104141 180.87397049 112.81104141 180.87397049 111.09512329 180.88702393 C109.87940643 180.88611755 108.66368958 180.88521118 107.41113281 180.88427734 C105.47344528 180.89435318 105.47344528 180.89435318 103.49661255 180.90463257 C99.96333215 180.92225098 96.43014873 180.92698625 92.89682865 180.92826414 C90.68524489 180.92968895 88.47368553 180.93396484 86.26210785 180.93925858 C78.53474878 180.95774691 70.80745857 180.96593092 63.08007812 180.96435547 C55.89662736 180.96315522 48.71347761 180.98423756 41.53010297 181.0158428 C35.34727236 181.04206861 29.16453967 181.05272009 22.98165393 181.05144465 C19.29584073 181.05093675 15.61029506 181.05652342 11.92453766 181.07780075 C7.80788395 181.10091777 3.69189643 181.0916239 -0.42480469 181.07958984 C-1.63242462 181.09082886 -2.84004456 181.10206787 -4.08425903 181.11364746 C-12.47167405 181.05152178 -19.44702902 179.69896403 -26.3515625 174.734375 C-32.58534926 168.14670514 -36.86620201 161.50701091 -36.91952515 152.22657776 C-36.92812561 151.11229904 -36.93672607 149.99802032 -36.94558716 148.84997559 C-36.95197708 147.01493469 -36.95197708 147.01493469 -36.95849609 145.14282227 C-36.96667358 143.85468124 -36.97485107 142.56654022 -36.98327637 141.23936462 C-37.00948091 136.96298307 -37.02481011 132.68659185 -37.0390625 128.41015625 C-37.04442428 126.93476798 -37.04980179 125.45937977 -37.05519485 123.98399162 C-37.07682813 117.84093988 -37.09555971 111.69789072 -37.10681725 105.55481052 C-37.1230206 96.77207666 -37.15610447 87.98978774 -37.21321809 79.20722157 C-37.25205791 73.02188682 -37.27146689 66.83667033 -37.27673781 60.65121692 C-37.28037437 56.96296493 -37.29221126 53.27518762 -37.32484055 49.58706856 C-37.36082002 45.46085825 -37.35651495 41.33558935 -37.34912109 37.20922852 C-37.36552643 36.004086 -37.38193176 34.79894348 -37.39883423 33.55728149 C-37.33582126 24.92431371 -35.8172744 16.44639203 -30.12018776 9.62301731 C-28.43797306 8.02294136 -26.73607683 6.82017937 -24.765625 5.59375 C-24.09219055 5.15712036 -23.4187561 4.72049072 -22.72491455 4.27062988 C-15.27252991 0.01183871 -8.41309282 -0.10972819 0 0 Z M-15.765625 25.59375 C-16.79660849 28.61986376 -16.89213243 31.44168545 -16.89501953 34.62182617 C-16.89817169 35.61933395 -16.90132385 36.61684174 -16.90457153 37.64457703 C-16.9025473 38.7144838 -16.90052307 39.78439056 -16.8984375 40.88671875 C-16.89939423 41.98848953 -16.90035095 43.09026031 -16.90133667 44.22541809 C-16.90201668 46.5512396 -16.90017488 48.87706301 -16.89599609 51.20288086 C-16.89063007 54.7778749 -16.89595501 58.35274417 -16.90234375 61.92773438 C-16.90168324 64.18489611 -16.90040263 66.44205777 -16.8984375 68.69921875 C-16.90046173 69.77519821 -16.90248596 70.85117767 -16.90457153 71.95976257 C-16.90141937 72.94781387 -16.89826721 73.93586517 -16.89501953 74.95385742 C-16.89422394 75.82781662 -16.89342834 76.70177582 -16.89260864 77.60221863 C-16.9858075 79.59379374 -16.9858075 79.59379374 -15.765625 80.59375 C-13.92444471 80.68756302 -12.07964859 80.71118954 -10.23608398 80.70727539 C-9.03834351 80.70715454 -7.84060303 80.70703369 -6.60656738 80.70690918 C-5.33776733 80.70179321 -4.06896729 80.69667725 -2.76171875 80.69140625 C-1.60289185 80.69039917 -0.44406494 80.68939209 0.74987793 80.68835449 C5.09888695 80.68310327 9.44788192 80.66914216 13.796875 80.65625 C23.51125 80.635625 33.225625 80.615 43.234375 80.59375 C43.234375 60.79375 43.234375 40.99375 43.234375 20.59375 C31.0759375 20.5009375 31.0759375 20.5009375 18.671875 20.40625 C16.12525146 20.37893799 13.57862793 20.35162598 10.95483398 20.32348633 C8.92171706 20.31471915 6.88859484 20.30707576 4.85546875 20.30078125 C3.28980164 20.2777594 3.28980164 20.2777594 1.69250488 20.25427246 C-5.08986883 20.25184816 -10.72532215 20.55344715 -15.765625 25.59375 Z M-15.765625 100.59375 C-16.718363 103.45196401 -16.90227683 105.27682548 -16.92675781 108.24536133 C-16.93636536 109.18676468 -16.9459729 110.12816803 -16.95587158 111.09809875 C-16.96012146 112.11373398 -16.96437134 113.1293692 -16.96875 114.17578125 C-16.97445007 115.22271652 -16.98015015 116.26965179 -16.98602295 117.34831238 C-16.99547266 119.56496164 -17.00200682 121.78162496 -17.00585938 123.99829102 C-17.01555716 127.3825749 -17.04657813 130.76624949 -17.078125 134.15039062 C-17.08465598 136.3046839 -17.08990608 138.45898151 -17.09375 140.61328125 C-17.1060968 141.62284378 -17.1184436 142.63240631 -17.13116455 143.67256165 C-17.11082091 150.11818414 -16.53119103 154.82818397 -11.765625 159.59375 C-8.70386091 160.64245366 -5.84851257 160.7152423 -2.62988281 160.70727539 C-1.59492676 160.70715454 -0.5599707 160.70703369 0.50634766 160.70690918 C1.58706543 160.70179321 2.6677832 160.69667725 3.78125 160.69140625 C4.77979004 160.69039917 5.77833008 160.68939209 6.80712891 160.68835449 C10.53288931 160.68312724 14.25863332 160.66916597 17.984375 160.65625 C30.483125 160.6253125 30.483125 160.6253125 43.234375 160.59375 C43.234375 140.79375 43.234375 120.99375 43.234375 100.59375 C23.764375 100.59375 4.294375 100.59375 -15.765625 100.59375 Z M64.234375 100.59375 C63.1915987 103.72207889 63.11360655 105.88564087 63.12084961 109.16674805 C63.12092514 110.30770432 63.12100067 111.44866058 63.12107849 112.62419128 C63.12623978 113.85551285 63.13140106 115.08683441 63.13671875 116.35546875 C63.1381337 117.61639847 63.13954865 118.87732819 63.14100647 120.1764679 C63.14565925 123.52526709 63.15464158 126.87399811 63.16571045 130.22277832 C63.17594813 133.64135143 63.18050914 137.05993159 63.18554688 140.47851562 C63.19658401 147.18361261 63.21332814 153.88867737 63.234375 160.59375 C70.3876258 160.66992191 77.54077167 160.72240121 84.69433594 160.75854492 C87.12699289 160.77361534 89.55962274 160.79407523 91.9921875 160.82006836 C95.49225561 160.8565274 98.9919639 160.8734942 102.4921875 160.88671875 C103.57678253 160.90220261 104.66137756 160.91768646 105.77883911 160.93363953 C111.3502592 160.93487648 115.45309885 160.80649028 120.234375 157.59375 C123.08719826 154.74092674 123.16493765 152.03699133 123.35462952 148.09428406 C123.35240891 147.21714249 123.35018829 146.34000092 123.34790039 145.4362793 C123.34771912 143.91448059 123.34771912 143.91448059 123.34753418 142.36193848 C123.34241821 141.30792847 123.33730225 140.25391846 123.33203125 139.16796875 C123.33102417 138.19009399 123.33001709 137.21221924 123.32897949 136.20471191 C123.3237607 132.56354596 123.30979944 128.92239676 123.296875 125.28125 C123.27625 117.134375 123.255625 108.9875 123.234375 100.59375 C103.764375 100.59375 84.294375 100.59375 64.234375 100.59375 Z " fill="#FDFEFE" transform="translate(166.765625,169.40625)"/>
<path d="M0 0 C0.33 0.99 0.66 1.98 1 3 C1.66 3 2.32 3 3 3 C3.2475 4.175625 3.495 5.35125 3.75 6.5625 C4.5023711 9.63740796 5.49202957 12.10246396 7.125 14.8125 C9 18 9 18 9 21 C9.66 21 10.32 21 11 21 C10.67 23.31 10.34 25.62 10 28 C10.99 28.33 11.98 28.66 13 29 C13.07427838 32.34252724 13.06546953 34.8035914 12 38 C12.66 38.66 13.32 39.32 14 40 C14 40.99 14 41.98 14 43 C14.66 43 15.32 43 16 43 C17.82412004 56.50157503 18.31388573 69.77930268 18.33813477 83.39282227 C18.34905896 85.58149078 18.36073366 87.77015565 18.37309265 89.95881653 C18.40332236 95.85179563 18.42054786 101.74473609 18.43330884 107.63777661 C18.44144573 111.33434374 18.45162751 115.03090032 18.46232414 118.72746086 C18.4949631 130.33681641 18.51889215 141.94614552 18.531138 153.55554062 C18.54538069 166.87700501 18.58924905 180.19777628 18.65863949 193.51907688 C18.71067797 203.87219359 18.73533082 214.22516048 18.73996013 224.5784058 C18.7433325 230.73671238 18.75778551 236.89447947 18.80124092 243.05264473 C19.1312912 292.47430656 19.1312912 292.47430656 11 312 C10.66217562 312.8547246 10.32435123 313.7094492 9.97628975 314.59007454 C-4.4495947 351.05479034 -31.3686141 378.83708141 -67.1081543 394.85986328 C-82.76159021 401.56086449 -99.67062362 405.13756842 -116.67735291 405.16062927 C-118.09447416 405.168261 -118.09447416 405.168261 -119.54022413 405.17604691 C-122.69079587 405.19168195 -125.8413448 405.20027295 -128.99194336 405.20874023 C-131.25795127 405.21828648 -133.52395775 405.22817798 -135.78996277 405.23838806 C-143.22323899 405.26970302 -150.65652612 405.29004138 -158.08984375 405.30859375 C-159.35836284 405.31189107 -160.62688193 405.31518839 -161.93384099 405.31858563 C-173.91961118 405.34937858 -185.90538308 405.3762206 -197.89118099 405.39300442 C-200.66272427 405.39695291 -203.43426745 405.40095603 -206.20581055 405.4050293 C-206.89453263 405.40603766 -207.58325471 405.40704602 -208.29284716 405.40808494 C-219.41091936 405.42503523 -230.52876677 405.46608581 -241.64672964 405.51705229 C-253.10430934 405.56913591 -264.56173852 405.59750653 -276.0194388 405.6052013 C-282.43493891 405.61012536 -288.85003967 405.62489351 -295.26542473 405.6649456 C-301.31736449 405.70222974 -307.36868373 405.71008651 -313.42071724 405.69693947 C-315.62106453 405.69699274 -317.82144231 405.70700621 -320.02168274 405.7286911 C-336.09955479 405.87845159 -350.53083352 403.36887904 -366 399 C-366.33 396.36 -366.66 393.72 -367 391 C-367.8971875 391.7425 -367.8971875 391.7425 -368.8125 392.5 C-371 394 -371 394 -374 394 C-374.66 392.35 -375.32 390.7 -376 389 C-376 389.66 -376 390.32 -376 391 C-377.98 390.67 -379.96 390.34 -382 390 C-382 389.01 -382 388.02 -382 387 C-383.32 386.67 -384.64 386.34 -386 386 C-386 385.01 -386 384.02 -386 383 C-387.98 382.67 -389.96 382.34 -392 382 C-392 382.66 -392 383.32 -392 384 C-393.98 383.34 -395.96 382.68 -398 382 C-398 380.35 -398 378.7 -398 377 C-398.66 377 -399.32 377 -400 377 C-400.33 377.66 -400.66 378.32 -401 379 C-400.67 376.69 -400.34 374.38 -400 372 C-396.64474971 370.88158324 -396.02910146 371.08461179 -392.875 372.3125 C-392.17117188 372.57675781 -391.46734375 372.84101563 -390.7421875 373.11328125 C-389 374 -389 374 -388 376 C-385.47266765 376.65555119 -385.47266765 376.65555119 -383 377 C-383 377.99 -383 378.98 -383 380 C-382.28199219 379.80664062 -381.56398438 379.61328125 -380.82421875 379.4140625 C-377.64826835 378.94843215 -375.8391697 379.37679426 -372.8125 380.375 C-371.95269531 380.65085937 -371.09289062 380.92671875 -370.20703125 381.2109375 C-366.7717053 382.43914253 -366.13364763 382.79952856 -364 386 C-360.43230448 386.73606499 -360.43230448 386.73606499 -357 387 C-357 387.66 -357 388.32 -357 389 C-356.2575 388.505 -355.515 388.01 -354.75 387.5 C-352 386 -352 386 -348 386 C-346.56072228 385.99267437 -345.12145094 385.98402548 -343.68218708 385.97435188 C-342.82082466 385.96861849 -341.95946225 385.9628851 -341.07199794 385.95697796 C-340.13029016 385.95056031 -339.18858239 385.94414265 -338.21833801 385.93753052 C-337.21419395 385.93077454 -336.21004988 385.92401857 -335.17547721 385.91705787 C-331.80033318 385.89426483 -328.42519091 385.87122424 -325.05004883 385.84814453 C-323.86896231 385.84010551 -322.68787579 385.8320665 -321.47099876 385.82378387 C-298.8979519 385.66991025 -276.32498105 385.50611826 -253.75203793 385.33776612 C-250.05970874 385.31023304 -246.36737896 385.28277782 -242.67504883 385.25537109 C-241.94009765 385.24991449 -241.20514647 385.24445788 -240.44792404 385.23883592 C-228.56775442 385.15082776 -216.68754813 385.06950208 -204.80731431 384.99069478 C-192.59048633 384.90950767 -180.3737251 384.82115335 -168.15699595 384.7262429 C-160.63452403 384.66802165 -153.11205582 384.6152422 -145.58949663 384.56964205 C-139.8053319 384.53397583 -134.02127835 384.48828314 -128.23721504 384.43901825 C-125.87875428 384.42045631 -123.52026611 384.40504344 -121.16176224 384.39316177 C-87.28466285 384.21735395 -56.77725385 379.17382641 -31.6796875 354.74609375 C-6.51232552 328.95505079 -2.87693116 298.76433711 -2.81054688 264.26831055 C-2.80259377 261.97250724 -2.79420499 259.67670541 -2.78541565 257.38090515 C-2.76743345 252.4570579 -2.75239178 247.53321374 -2.73963928 242.6093502 C-2.71933602 234.82270091 -2.69169742 227.03608806 -2.66296387 219.24946594 C-2.62335917 208.33420584 -2.58638129 197.4189407 -2.55224609 186.50366211 C-2.55008329 185.81248044 -2.54792049 185.12129878 -2.54569215 184.40917221 C-2.52816506 178.79911504 -2.51081229 173.18905733 -2.49348927 167.57899952 C-2.47832027 162.66749358 -2.46308905 157.75598784 -2.44775391 152.84448242 C-2.44559504 152.15263596 -2.44343617 151.4607895 -2.44121188 150.74797799 C-2.40508006 139.20673458 -2.36509098 127.66550819 -2.32245111 116.12428695 C-2.29413141 108.38387061 -2.27052606 100.64345856 -2.25052643 92.90301645 C-2.23713283 88.09205534 -2.2197217 83.28111487 -2.20121574 78.47017097 C-2.19346612 76.23971453 -2.18739373 74.00925153 -2.18312263 71.77878571 C-2.17706442 68.73401444 -2.16501049 65.68932297 -2.15148926 62.64457703 C-2.15104528 61.32171716 -2.15104528 61.32171716 -2.15059233 59.97213286 C-2.07433835 47.07433835 -2.07433835 47.07433835 1 44 C0.34 43.34 -0.32 42.68 -1 42 C-0.649375 41.38125 -0.29875 40.7625 0.0625 40.125 C0.371875 39.42375 0.68125 38.7225 1 38 C0.67 37.34 0.34 36.68 0 36 C0.33 35.34 0.66 34.68 1 34 C0.01 33.34 -0.98 32.68 -2 32 C-1.45276317 28.62537285 -0.9451 26.91765 1 24 C0.38640625 23.94070312 -0.2271875 23.88140625 -0.859375 23.8203125 C-3 23 -3 23 -4.265625 20.7421875 C-7.80791426 10.42456719 -7.80791426 10.42456719 -7 5 C-4 3 -4 3 -2 3 C-1.34 2.01 -0.68 1.02 0 0 Z " fill="#7A69FD" transform="translate(462,75)"/>
<path d="M0 0 C0.71241852 -0.0065712 1.42483704 -0.0131424 2.15884399 -0.01991272 C4.52158714 -0.039657 6.88426664 -0.05131188 9.24707031 -0.0612793 C10.05415688 -0.06535482 10.86124344 -0.06943035 11.69278717 -0.07362938 C15.96608729 -0.09449676 20.23935525 -0.10879453 24.51269531 -0.11816406 C28.92230029 -0.12921901 33.33139932 -0.16360602 37.74082565 -0.20333576 C41.13467329 -0.2295114 44.52840069 -0.23785681 47.92234039 -0.24144554 C49.54741068 -0.24631051 51.17247564 -0.25792205 52.7974472 -0.27648354 C55.07630673 -0.3008922 57.35386165 -0.29990734 59.6328125 -0.29296875 C60.92805847 -0.29883499 62.22330444 -0.30470123 63.55780029 -0.31074524 C69.13258101 0.46229379 72.85900189 3.4879495 76.38769531 7.73950195 C77.12439453 8.60768555 77.12439453 8.60768555 77.87597656 9.4934082 C80.47874212 13.14745367 80.21274309 16.69913605 80.23632812 21.03173828 C80.24377548 22.07132439 80.24377548 22.07132439 80.25137329 23.13191223 C80.26597547 25.42429601 80.27279401 27.71661056 80.27832031 30.0090332 C80.28407382 31.60462953 80.28983153 33.20022584 80.29559326 34.79582214 C80.30609803 38.14236777 80.31194397 41.48888942 80.31542969 44.83544922 C80.32091018 49.11602146 80.34493072 53.39627494 80.37340164 57.67674732 C80.39206022 60.97365738 80.39723535 64.27049118 80.39876556 67.56744957 C80.40178588 69.1450544 80.40979344 70.72265809 80.42295074 72.30021095 C80.44007746 74.51174519 80.43811519 76.7225077 80.43164062 78.93408203 C80.43710907 80.819132 80.43710907 80.819132 80.44268799 82.74226379 C79.82444648 88.52060395 77.46846137 92.30348517 73.07519531 95.98950195 C72.39457031 96.57344727 71.71394531 97.15739258 71.01269531 97.7590332 C67.23054343 100.52701936 63.7615699 100.31341469 59.22045898 100.33813477 C58.18087288 100.34558212 58.18087288 100.34558212 57.12028503 100.35317993 C54.82790126 100.36778211 52.53558671 100.37460065 50.24316406 100.38012695 C48.64756773 100.38588046 47.05197142 100.39163817 45.45637512 100.3973999 C42.10982949 100.40790467 38.76330784 100.41375061 35.41674805 100.41723633 C31.1361758 100.42271682 26.85592232 100.44673736 22.57544994 100.47520828 C19.27853989 100.49386686 15.98170608 100.49904199 12.6847477 100.5005722 C11.10714286 100.50359252 9.52953917 100.51160009 7.95198631 100.52475739 C5.74045207 100.5418841 3.52968957 100.53992183 1.31811523 100.53344727 C0.06141525 100.5370929 -1.19528473 100.54073853 -2.49006653 100.54449463 C-9.05654994 99.84192737 -13.28336022 96.62340812 -17.33178711 91.63549805 C-21.55645773 85.11558492 -21.22970831 76.10544835 -21.11230469 68.55200195 C-21.10368408 67.62266846 -21.09506348 66.69333496 -21.08618164 65.73583984 C-21.06071598 63.54801488 -21.02849522 61.36026289 -20.99121094 59.17260742 C-20.94155011 56.18455929 -20.90022203 53.19696912 -20.86621094 50.20874023 C-20.81264929 45.60867171 -20.74120596 41.00913339 -20.65933228 36.40948486 C-20.62810223 34.55339489 -20.60135371 32.69722383 -20.57919312 30.84100342 C-20.54573375 28.20123401 -20.49335355 25.56245263 -20.43652344 22.9230957 C-20.43011841 22.13016617 -20.42371338 21.33723663 -20.41711426 20.52027893 C-20.2633119 14.71208645 -19.07025278 10.44140559 -14.95214844 6.0949707 C-14.2625 5.52391602 -13.57285156 4.95286133 -12.86230469 4.36450195 C-11.82396484 3.48858398 -11.82396484 3.48858398 -10.76464844 2.5949707 C-7.15140093 -0.18976145 -4.52944605 0.03450976 0 0 Z M0.07519531 21.17700195 C0.07519531 40.64700195 0.07519531 60.11700195 0.07519531 80.17700195 C19.87519531 80.17700195 39.67519531 80.17700195 60.07519531 80.17700195 C60.07519531 60.70700195 60.07519531 41.23700195 60.07519531 21.17700195 C57.09896242 20.18492432 55.1461793 20.05034661 52.04052734 20.04760742 C51.01581329 20.04445526 49.99109924 20.0413031 48.93533325 20.03805542 C47.82906586 20.04007965 46.72279846 20.04210388 45.58300781 20.04418945 C44.44491669 20.04323273 43.30682556 20.042276 42.13424683 20.04129028 C39.72507675 20.04060932 37.31590484 20.04245775 34.90673828 20.04663086 C31.22196311 20.05197041 27.53731038 20.04668807 23.85253906 20.0402832 C21.51269504 20.04094419 19.1728511 20.04222579 16.83300781 20.04418945 C15.17967941 20.04115311 15.17967941 20.04115311 13.49295044 20.03805542 C12.46193207 20.04120758 11.4309137 20.04435974 10.36865234 20.04760742 C9.01321823 20.04880081 9.01321823 20.04880081 7.63040161 20.05001831 C4.64451921 20.13556081 4.64451921 20.13556081 0.07519531 21.17700195 Z " fill="#FDFEFE" transform="translate(269.9248046875,129.822998046875)"/>
<path d="M0 0 C0.33 0 0.66 0 1 0 C0.99886084 0.56062462 0.99772168 1.12124925 0.996548 1.69886249 C0.92929758 34.98480905 0.87788177 68.27073848 0.84680401 101.55673784 C0.84305225 105.56053042 0.83916925 109.56432286 0.83520508 113.56811523 C0.83441815 114.36514072 0.83363122 115.1621662 0.83282044 115.98334397 C0.8197948 128.85966807 0.79615676 141.73595167 0.76854161 154.61225181 C0.74040806 167.84138655 0.723807 181.07050018 0.71773452 194.2996636 C0.71363449 202.45149175 0.7007227 210.60320536 0.6762506 218.75499821 C0.66029506 224.35800485 0.65562164 229.96095297 0.65949587 235.56398063 C0.6614023 238.78837445 0.65696381 242.01252957 0.64238358 245.23689651 C0.50119672 278.09067508 6.8612051 304.68646628 30 329 C30.66 329.33 31.32 329.66 32 330 C32 330.66 32 331.32 32 332 C32.84304687 332.38285156 32.84304687 332.38285156 33.703125 332.7734375 C36.29382441 334.15690623 38.43351393 335.81929191 40.75 337.625 C66.44123819 356.42429912 94.73138421 357.2786561 125.4453125 357.4140625 C128.15487064 357.43176598 130.8644055 357.45229413 133.57394409 357.4727478 C139.92693691 357.51911578 146.27994633 357.55605973 152.63301933 357.58942068 C159.87881708 357.62794311 167.12452949 357.67727181 174.37025476 357.72740483 C189.24677306 357.83009842 204.12334344 357.91955753 219 358 C219 358.33 219 358.66 219 359 C202.62345334 359.13052846 186.2469056 359.26092109 169.87035656 359.39115143 C162.26667925 359.45162091 154.6630023 359.51213507 147.05932617 359.57275391 C140.4330241 359.6255807 133.80672137 359.67832418 127.18041784 359.73096704 C123.67090355 359.75885141 120.16138961 359.78677788 116.65187645 359.81480408 C112.7369128 359.84606655 108.82194768 359.87714304 104.90698242 359.90820312 C103.7395752 359.91755386 102.57216797 359.9269046 101.36938477 359.9365387 C100.30507736 359.94495285 99.24076996 359.953367 98.14421082 359.96203613 C96.75460789 359.97309765 96.75460789 359.97309765 95.33693218 359.98438263 C93.5579869 359.99627106 91.77898501 360 90 360 C87.98848259 360.63106429 85.98636298 361.29373761 84 362 C84 361.34 84 360.68 84 360 C83.236875 360.165 82.47375 360.33 81.6875 360.5 C79.37602823 360.93004126 77.34534817 361 75 361 C75 359.35 75 357.7 75 356 C72.91798472 355.49453964 70.83432933 354.99583165 68.75 354.5 C67.58984375 354.2215625 66.4296875 353.943125 65.234375 353.65625 C61.89669288 352.86743548 61.89669288 352.86743548 58 353 C58 352.01 58 351.02 58 350 C56.02 350 54.04 350 52 350 C51.505 348.515 51.505 348.515 51 347 C47.7 346.34 44.4 345.68 41 345 C41 346.65 41 348.3 41 350 C41.66 350 42.32 350 43 350 C43.495 351.485 43.495 351.485 44 353 C43.67 353.66 43.34 354.32 43 355 C43.61875 355.144375 44.2375 355.28875 44.875 355.4375 C47 356 47 356 49 357 C49 356.34 49 355.68 49 355 C50.98 355.33 52.96 355.66 55 356 C55.33 355.34 55.66 354.68 56 354 C56.5625 355.9375 56.5625 355.9375 57 358 C56.67 358.33 56.34 358.66 56 359 C56.99 359.33 57.98 359.66 59 360 C59 360.99 59 361.98 59 363 C60.32 362.67 61.64 362.34 63 362 C63 362.66 63 363.32 63 364 C63.66 364 64.32 364 65 364 C65 363.34 65 362.68 65 362 C65.66 362.33 66.32 362.66 67 363 C67 364.32 67 365.64 67 367 C69.91517292 365.92598892 71.77810176 365.22189824 74 363 C74.495 364.485 74.495 364.485 75 366 C74.67 366.66 74.34 367.32 74 368 C74.66 368.33 75.32 368.66 76 369 C75.67 369.66 75.34 370.32 75 371 C47.92640377 366.89479059 21.17734717 343.00100537 5.3125 321.875 C-2.08543641 311.66960714 -14 294.95370464 -14 282 C-10.76849539 282.96071759 -9.24148827 283.69411485 -7.125 286.375 C-5.84764623 289.35549214 -6.13585115 290.02348731 -7 293 C-6.14209817 295.21771064 -6.14209817 295.21771064 -5 297 C-5.33 297.33 -5.66 297.66 -6 298 C-5.0409375 298.4021875 -5.0409375 298.4021875 -4.0625 298.8125 C-2 300 -2 300 -1 303 C-1 302.01 -1 301.02 -1 300 C-0.34 300 0.32 300 1 300 C1.144375 299.278125 1.28875 298.55625 1.4375 297.8125 C1.80533123 295.97334385 2.20015613 294.13932863 2.625 292.3125 C3.23427015 289.98135781 3.23427015 289.98135781 2 288 C1.960008 286.00039988 1.95653201 283.99952758 2 282 C0.02 282 -1.96 282 -4 282 C-4.33 280.35 -4.66 278.7 -5 277 C-4.01 277 -3.02 277 -2 277 C-1.67 274.69 -1.34 272.38 -1 270 C-1.66 270 -2.32 270 -3 270 C-2.99347412 269.10676025 -2.98694824 268.21352051 -2.98022461 267.29321289 C-2.94820657 259.20992887 -3.04113154 251.13924253 -3.25390625 243.05859375 C-3.27842865 242.11271393 -3.30295105 241.16683411 -3.32821655 240.19229126 C-3.43101509 236.27741141 -3.53598165 232.36262037 -3.64819336 228.44799805 C-3.73035771 225.54747722 -3.80516448 222.64683928 -3.87890625 219.74609375 C-3.90594131 218.86996933 -3.93297638 217.99384491 -3.96083069 217.09117126 C-3.98092697 216.26242996 -4.00102325 215.43368866 -4.02172852 214.57983398 C-4.05170677 213.50305641 -4.05170677 213.50305641 -4.08229065 212.40452576 C-4 210 -4 210 -3.50390434 206.86164856 C-2.97677312 202.82200185 -2.85309852 198.87342177 -2.85523987 194.80909729 C-2.8499496 193.61415355 -2.8499496 193.61415355 -2.84455246 192.39506954 C-2.83392576 189.74066859 -2.83019507 187.08630361 -2.82641602 184.43188477 C-2.82010617 182.52267304 -2.81333989 180.61346277 -2.80615234 178.70425415 C-2.79151365 174.59990813 -2.77977639 170.49556767 -2.77020454 166.39120674 C-2.75471976 159.89846782 -2.73077145 153.40577714 -2.70530701 146.91307068 C-2.63418754 128.45273895 -2.57430778 109.99238004 -2.52319336 91.53198242 C-2.49487381 81.33110245 -2.45948722 71.13027097 -2.41653961 60.92944187 C-2.38980272 54.47801722 -2.37187602 48.02664737 -2.36050236 41.57517827 C-2.35136277 37.55844673 -2.33399492 33.54178173 -2.31432343 29.52508926 C-2.30686413 27.66595063 -2.30276784 25.80679492 -2.30232811 23.94764137 C-2.30124098 21.40425843 -2.28795231 18.86121157 -2.27174377 16.31788635 C-2.27436063 15.587229 -2.27697748 14.85657166 -2.27967364 14.10377318 C-2.23028216 9.12139635 -1.35520016 4.79776067 0 0 Z " fill="#2D8FE7" transform="translate(21,102)"/>
<path d="M0 0 C5.93353333 0.54740999 10.76765901 2.94924566 16.0625 5.5 C17.46314697 6.17276978 17.46314697 6.17276978 18.89208984 6.85913086 C26.49490873 10.59478335 33.29379612 14.79738791 40 20 C40.92683594 20.70640625 41.85367187 21.4128125 42.80859375 22.140625 C70.21940552 43.75822974 87.34327676 73.09165423 95 107 C95.20625 107.82242188 95.4125 108.64484375 95.625 109.4921875 C96.18912547 113.26477661 96.10399478 117.00455589 96.0625 120.8125 C96.05798828 121.60076172 96.05347656 122.38902344 96.04882812 123.20117188 C96.03711312 125.13414761 96.01917998 127.06708393 96 129 C95.67 129 95.34 129 95 129 C94.10395632 122.95170514 93.88730557 117.1105424 94 111 C93.34 111 92.68 111 92 111 C88.91860465 105.7 88.91860465 105.7 89.3125 102.3125 C89.6528125 101.1678125 89.6528125 101.1678125 90 100 C90 99.01 90 98.02 90 97 C89.34 96.67 88.68 96.34 88 96 C88.33 93.69 88.66 91.38 89 89 C88.34 89 87.68 89 87 89 C85.98498002 87.13308826 84.98857921 85.25604656 84 83.375 C83.1646875 81.80878906 83.1646875 81.80878906 82.3125 80.2109375 C80.9421745 76.85853405 80.7419495 74.58045064 81 71 C80.34 71 79.68 71 79 71 C78.67 70.34 78.34 69.68 78 69 C77.38125 69.66 76.7625 70.32 76.125 71 C74 73 74 73 72 73 C71.66562724 79.24162484 72.61455124 83.23516549 75 89 C75 89.66 75 90.32 75 91 C76.32 91.33 77.64 91.66 79 92 C78.67 92.5775 78.34 93.155 78 93.75 C76.72924102 96.19883862 76.72924102 96.19883862 77 100 C77.99 100.66 78.98 101.32 80 102 C79.67 102.99 79.34 103.98 79 105 C79.33 105.66 79.66 106.32 80 107 C79.34 107 78.68 107 78 107 C78 107.99 78 108.98 78 110 C78.66 110.66 79.32 111.32 80 112 C79.34 112.66 78.68 113.32 78 114 C77.59952556 116.32275177 77.2602896 118.65739357 77 121 C76.67 121 76.34 121 76 121 C75.96559814 120.40276123 75.93119629 119.80552246 75.89575195 119.19018555 C73.99617667 88.38761512 65.90730943 62.47815466 43.4453125 40.27734375 C42.00828905 38.896973 42.00828905 38.896973 40 38 C40 37.34 40 36.68 40 36 C39.484375 35.75894531 38.96875 35.51789062 38.4375 35.26953125 C35.85415888 33.92404108 33.39854343 32.41488848 30.92578125 30.87768555 C6.93270006 16.04930436 -17.47837419 13.68504673 -45.01855469 13.75708008 C-47.41668245 13.75600533 -49.81480996 13.75406378 -52.2129364 13.75132751 C-58.01589589 13.74700669 -63.81879275 13.75187924 -69.62174526 13.76117782 C-76.39376404 13.77163383 -83.16577082 13.77148975 -89.93779615 13.77100524 C-102.0260884 13.77050621 -114.11435406 13.77962393 -126.20263672 13.79418945 C-137.90804529 13.80828614 -149.61343048 13.81535954 -161.31884766 13.81469727 C-162.4013281 13.81463733 -162.4013281 13.81463733 -163.50567684 13.81457619 C-164.58636793 13.81451565 -164.58636793 13.81451565 -165.68889117 13.8144539 C-179.0558918 13.81376265 -192.42288259 13.81966046 -205.78988002 13.82860712 C-210.50073607 13.83161219 -215.2115903 13.83268532 -219.9224472 13.83313942 C-226.26892979 13.83414669 -232.61538803 13.84027465 -238.96186256 13.85030556 C-241.28578606 13.85321658 -243.60971237 13.85445877 -245.93363762 13.85387802 C-249.11478056 13.85338403 -252.29585622 13.85907504 -255.47698975 13.86628723 C-256.38799903 13.86473863 -257.29900831 13.86319003 -258.23762393 13.8615945 C-264.53621641 13.8850443 -270.73688885 14.34164249 -277 15 C-271.39750547 11.26500365 -264.98471204 11.8506887 -258.46894836 11.84851074 C-257.0395735 11.84216213 -257.0395735 11.84216213 -255.58132237 11.83568525 C-252.39185978 11.82268113 -249.20242217 11.81663947 -246.01293945 11.81054688 C-243.72451119 11.8026025 -241.43608444 11.79421438 -239.1476593 11.78541565 C-234.22044118 11.76736665 -229.29322635 11.75234788 -224.36599159 11.73963928 C-216.57032275 11.71939959 -208.77469101 11.69174797 -200.97904968 11.66296387 C-190.04471627 11.62328356 -179.1103777 11.58632535 -168.17602539 11.55224609 C-167.13573724 11.54900189 -167.13573724 11.54900189 -166.07443317 11.54569215 C-161.15378906 11.53036994 -156.23314456 11.51517548 -151.3125 11.5 C-145.70027638 11.48268353 -140.088053 11.46529432 -134.47583008 11.44775391 C-133.43908829 11.4445156 -133.43908829 11.4445156 -132.38140223 11.44121188 C-120.83580962 11.40503078 -109.29023375 11.36502986 -97.74466294 11.32245111 C-90.00034474 11.29416938 -82.25603069 11.27054855 -74.51168692 11.25052643 C-69.68523291 11.23709539 -64.85879909 11.2196851 -60.03236198 11.20121574 C-57.80036558 11.19349015 -55.56836277 11.18740738 -53.33635712 11.18312263 C-50.27952737 11.17702752 -47.22277478 11.16495593 -44.16596985 11.15148926 C-42.85444796 11.15104528 -42.85444796 11.15104528 -41.51643068 11.15059233 C-32.28449648 11.09677554 -23.16277003 10.05146541 -14 9 C-13.67 9.99 -13.34 10.98 -13 12 C-11.35 11.67 -9.7 11.34 -8 11 C-8 11.66 -8 12.32 -8 13 C-7.13375 11.9790625 -7.13375 11.9790625 -6.25 10.9375 C-5.5075 10.298125 -4.765 9.65875 -4 9 C-1.75 9.25 -1.75 9.25 0 10 C-0.33 11.65 -0.66 13.3 -1 15 C4.28 15.99 9.56 16.98 15 18 C15.99 16.35 16.98 14.7 18 13 C18.66 12.67 19.32 12.34 20 12 C19.01 11.67 18.02 11.34 17 11 C16 10 15 9 14 8 C13.01 7.67 12.02 7.34 11 7 C10.34 7.33 9.68 7.66 9 8 C8.34 7.34 7.68 6.68 7 6 C5.68 6.66 4.36 7.32 3 8 C2.01 7.34 1.02 6.68 0 6 C-0.1875 2.875 -0.1875 2.875 0 0 Z " fill="#2F7FF8" transform="translate(384,7)"/>
<path d="M0 0 C0.33 0 0.66 0 1 0 C1 11.88 1 23.76 1 36 C1.66 36.33 2.32 36.66 3 37 C3 40 3 40 2.5 41.9375 C1.84293332 44.29419326 1.84293332 44.29419326 2 48 C1.814375 48.66 1.62875 49.32 1.4375 50 C0.82359455 52.01547982 0.82359455 52.01547982 1.625 54 C1.74875 54.66 1.8725 55.32 2 56 C1.54496094 56.59941406 1.08992188 57.19882812 0.62109375 57.81640625 C-1.14482538 60.19507804 -1.7951629 62.09177556 -2.5625 64.9375 C-3.53168594 68.39086253 -4.57095242 71.7021979 -6 75 C-5.38125 75.12375 -4.7625 75.2475 -4.125 75.375 C-2 76 -2 76 0 78 C3.62549681 74.74634901 5.36324614 72.8393293 6 68 C6.99 66.515 6.99 66.515 8 65 C8.495 63.515 8.495 63.515 9 62 C9.66 62 10.32 62 11 62 C11 61.01 11 60.02 11 59 C11.66 59 12.32 59 13 59 C12.4360736 64.64835957 10.31703243 69.14812387 7.875 74.1875 C7.46685059 75.03465576 7.05870117 75.88181152 6.63818359 76.75463867 C-9.71701663 110.18518003 -38.63419293 135.65908874 -73.64306641 148.22558594 C-84.64246332 151.83964094 -96.39088382 154.70093612 -108 155 C-108 153.68 -108 152.36 -108 151 C-107.46375 151.185625 -106.9275 151.37125 -106.375 151.5625 C-103.38009386 152.11419324 -100.96254171 151.60597444 -98 151 C-98 150.01 -98 149.02 -98 148 C-96.02 148.33 -94.04 148.66 -92 149 C-92 148.34 -92 147.68 -92 147 C-91.0925 147.37125 -90.185 147.7425 -89.25 148.125 C-86.1791881 149.30796875 -86.1791881 149.30796875 -84.0625 148.1875 C-83.0415625 147.5996875 -83.0415625 147.5996875 -82 147 C-81.01 146.9175 -80.02 146.835 -79 146.75 C-74.15316885 146.19397824 -70.1225139 143.7219002 -65.8671875 141.47265625 C-63 140 -63 140 -60.17578125 138.96484375 C-59.45777344 138.64644531 -58.73976563 138.32804688 -58 138 C-57.25475806 135.52391899 -57.25475806 135.52391899 -57 133 C-56.34 132.34 -55.68 131.68 -55 131 C-52.6171875 131.0234375 -52.6171875 131.0234375 -49.875 131.375 C-48.96492188 131.48585938 -48.05484375 131.59671875 -47.1171875 131.7109375 C-46.41851562 131.80632812 -45.71984375 131.90171875 -45 132 C-44.67 130.35 -44.34 128.7 -44 127 C-43.34 127 -42.68 127 -42 127 C-41.505 125.515 -41.505 125.515 -41 124 C-38.9375 122.8125 -38.9375 122.8125 -37 122 C-37 122.99 -37 123.98 -37 125 C-33.51668565 121.98112756 -32.20842856 119.43090471 -31 115 C-31.66 114.34 -32.32 113.68 -33 113 C-34.5833253 114.2488427 -34.5833253 114.2488427 -36 116 C-36 117.32 -36 118.64 -36 120 C-36.99 120 -37.98 120 -39 120 C-39.33 120.66 -39.66 121.32 -40 122 C-42.21484375 122.6328125 -42.21484375 122.6328125 -44.9375 123.125 C-45.83339844 123.29257812 -46.72929687 123.46015625 -47.65234375 123.6328125 C-50 124 -50 124 -52 124 C-52.495 125.485 -52.495 125.485 -53 127 C-56 129 -56 129 -59.125 129.4375 C-62.86957729 129.98106767 -66.03387644 130.93121657 -69.5859375 132.1640625 C-72.19177286 133.06640678 -74.80658178 133.92357324 -77.4375 134.75 C-78.67306641 135.14445312 -78.67306641 135.14445312 -79.93359375 135.546875 C-82 136 -82 136 -84 135 C-84.33 136.32 -84.66 137.64 -85 139 C-85.66 139 -86.32 139 -87 139 C-87 138.34 -87 137.68 -87 137 C-87.886875 137.185625 -88.77375 137.37125 -89.6875 137.5625 C-92.85178811 137.98042484 -94.94839642 137.80777742 -98 137 C-98 136.01 -98 135.02 -98 134 C-96.91203125 133.89042969 -95.8240625 133.78085937 -94.703125 133.66796875 C-66.15515494 130.65759786 -41.37153677 119.47808986 -22.75 97.125 C-4.35805646 72.85679235 -1.13791036 47.45311689 -0.4375 17.75 C-0.39419777 16.02212743 -0.35058025 14.29426273 -0.30664062 12.56640625 C-0.20079673 8.37768593 -0.09920366 4.18888263 0 0 Z " fill="#965AF4" transform="translate(460,325)"/>
<path d="M0 0 C-2.33846154 5.66153846 -2.33846154 5.66153846 -5.6875 7.375 C-6.8321875 7.684375 -6.8321875 7.684375 -8 8 C-8 7.01 -8 6.02 -8 5 C-8.33 5.66 -8.66 6.32 -9 7 C-15.75 7.125 -15.75 7.125 -18 6 C-18.66 6.66 -19.32 7.32 -20 8 C-21.0828125 7.4121875 -21.0828125 7.4121875 -22.1875 6.8125 C-25.01113893 5.65250517 -25.01113893 5.65250517 -27.5 7.25 C-28.7375 8.11625 -28.7375 8.11625 -30 9 C-31.65369357 9.69822617 -33.31727014 10.37498605 -35 11 C-34.505 11.99 -34.505 11.99 -34 13 C-35.98 13.99 -37.96 14.98 -40 16 C-40 15.34 -40 14.68 -40 14 C-44.29 14.66 -48.58 15.32 -53 16 C-53.33 17.32 -53.66 18.64 -54 20 C-52.35 20.33 -50.7 20.66 -49 21 C-49.99 22.65 -50.98 24.3 -52 26 C-51.01 25.67 -50.02 25.34 -49 25 C-47.43881572 24.93259135 -45.8749748 24.91485544 -44.3125 24.9375 C-43.10013672 24.95103516 -43.10013672 24.95103516 -41.86328125 24.96484375 C-41.24839844 24.97644531 -40.63351563 24.98804687 -40 25 C-42.70621072 26.80414048 -45.2930975 27.98627461 -48.29101562 29.20483398 C-67.51967106 37.11840785 -83.96064048 50.96951041 -94.6171875 68.9375 C-95.07351562 69.618125 -95.52984375 70.29875 -96 71 C-96.66 71 -97.32 71 -98 71 C-97.49380917 67.25418786 -96.84235245 65.48705839 -94 63 C-93.67 62.34 -93.34 61.68 -93 61 C-92.34 61 -91.68 61 -91 61 C-91 59.68 -91 58.36 -91 57 C-89.5 55.25 -89.5 55.25 -88 54 C-90.64 53.67 -93.28 53.34 -96 53 C-96.33 53.66 -96.66 54.32 -97 55 C-97 54.34 -97 53.68 -97 53 C-100.80658354 55.53772236 -101.30007406 57.83786272 -102.83984375 62.00390625 C-104 64 -104 64 -106.0546875 64.59375 C-107.01761719 64.79484375 -107.01761719 64.79484375 -108 65 C-109.25 67.91666667 -109.25 67.91666667 -110 71 C-110.495 71.99 -110.495 71.99 -111 73 C-111.66 73 -112.32 73 -113 73 C-111.65049136 68.18965468 -109.54458788 64.43778474 -106.625 60.4375 C-106.19018311 59.83542725 -105.75536621 59.23335449 -105.30737305 58.61303711 C-100.37580593 51.93507302 -94.76217724 45.9597376 -89 40 C-88.38640625 39.33484375 -87.7728125 38.6696875 -87.140625 37.984375 C-66.14694716 15.74354798 -30.70340561 -1.28735453 0 0 Z " fill="#04C2F5" transform="translate(130,0)"/>
<path d="M0 0 C3.48574899 2.01219968 6.63596787 4.22131049 9.8125 6.6875 C35.50485262 25.42294213 63.76152767 26.27878899 94.4453125 26.4140625 C97.15487064 26.43176598 99.8644055 26.45229413 102.57394409 26.4727478 C108.92693691 26.51911578 115.27994633 26.55605973 121.63301933 26.58942068 C128.87881708 26.62794311 136.12452949 26.67727181 143.37025476 26.72740483 C158.24677306 26.83009842 173.12334344 26.91955753 188 27 C188 27.33 188 27.66 188 28 C171.62345334 28.13052846 155.2469056 28.26092109 138.87035656 28.39115143 C131.26667925 28.45162091 123.6630023 28.51213507 116.05932617 28.57275391 C109.4330241 28.6255807 102.80672137 28.67832418 96.18041784 28.73096704 C92.67090355 28.75885141 89.16138961 28.78677788 85.65187645 28.81480408 C81.7369128 28.84606655 77.82194768 28.87714304 73.90698242 28.90820312 C72.7395752 28.91755386 71.57216797 28.9269046 70.36938477 28.9365387 C69.30507736 28.94495285 68.24076996 28.953367 67.14421082 28.96203613 C65.75460789 28.97309765 65.75460789 28.97309765 64.33693218 28.98438263 C62.5579869 28.99627106 60.77898501 29 59 29 C56.98848259 29.63106429 54.98636298 30.29373761 53 31 C53 30.34 53 29.68 53 29 C52.236875 29.165 51.47375 29.33 50.6875 29.5 C48.37602823 29.93004126 46.34534817 30 44 30 C44 28.35 44 26.7 44 25 C41.91798472 24.49453964 39.83432933 23.99583165 37.75 23.5 C36.58984375 23.2215625 35.4296875 22.943125 34.234375 22.65625 C30.89669288 21.86743548 30.89669288 21.86743548 27 22 C27 21.01 27 20.02 27 19 C25.02 19 23.04 19 21 19 C20.505 17.515 20.505 17.515 20 16 C16.7 15.34 13.4 14.68 10 14 C10 15.65 10 17.3 10 19 C10.66 19 11.32 19 12 19 C12.33 19.99 12.66 20.98 13 22 C12.67 22.66 12.34 23.32 12 24 C12.61875 24.144375 13.2375 24.28875 13.875 24.4375 C16 25 16 25 18 26 C18 25.34 18 24.68 18 24 C19.98 24.33 21.96 24.66 24 25 C24.33 24.34 24.66 23.68 25 23 C25.5625 24.9375 25.5625 24.9375 26 27 C25.505 27.495 25.505 27.495 25 28 C25.99 28.33 26.98 28.66 28 29 C28 29.99 28 30.98 28 32 C29.32 31.67 30.64 31.34 32 31 C32 31.66 32 32.32 32 33 C32.66 33 33.32 33 34 33 C34 32.34 34 31.68 34 31 C34.66 31.33 35.32 31.66 36 32 C36 33.32 36 34.64 36 36 C38.91517292 34.92598892 40.77810176 34.22189824 43 32 C43.33 32.99 43.66 33.98 44 35 C43.505 35.99 43.505 35.99 43 37 C43.99 37.495 43.99 37.495 45 38 C44.505 38.99 44.505 38.99 44 40 C23.48120125 36.88870422 1.67207072 20.98416964 -12 6 C-12 5.34 -12 4.68 -12 4 C-10.02 4.66 -8.04 5.32 -6 6 C-5.67 5.34 -5.34 4.68 -5 4 C-4.34 3.67 -3.68 3.34 -3 3 C-1.9805881 2.01979625 -0.97753644 1.02196992 0 0 Z " fill="#367EF8" transform="translate(52,433)"/>
<path d="M0 0 C3.23150461 0.96071759 4.75851173 1.69411485 6.875 4.375 C8.15235377 7.35549214 7.86414885 8.02348731 7 11 C7.85790183 13.21771064 7.85790183 13.21771064 9 15 C8.67 15.33 8.34 15.66 8 16 C8.61875 16.165 9.2375 16.33 9.875 16.5 C13.27756949 18.90181375 13.22612026 22.00162134 14 26 C15.89213369 23.61426621 17.02391783 21.92824652 18 19 C18.99 19.33 19.98 19.66 21 20 C21.33 19.01 21.66 18.02 22 17 C24.48277551 20.15645545 26.47768774 23.47129106 28.5 26.9375 C33.33671322 35.02231832 39.33914156 42.33914156 46 49 C45.525625 49.45375 45.05125 49.9075 44.5625 50.375 C42.90972192 51.93258204 42.90972192 51.93258204 42 54 C37.74872966 55.4575784 35.0764595 54.69337775 31 53 C17.34692227 41.25311113 5.14763348 20.35076461 0 3 C0 2.01 0 1.02 0 0 Z " fill="#2B83F6" transform="translate(7,384)"/>
<path d="M0 0 C5.56472574 0.56002831 9.9267939 2.6345243 14.875 5.0625 C15.65875 5.43955078 16.4425 5.81660156 17.25 6.20507812 C19.16995053 7.12993234 21.085439 8.06403978 23 9 C23 9.99 23 10.98 23 12 C23.99 12 24.98 12 26 12 C26.33 12.99 26.66 13.98 27 15 C26.4225 15.2475 25.845 15.495 25.25 15.75 C22.6997003 17.16683317 20.98214299 18.87627537 19 21 C19.99 21.33 20.98 21.66 22 22 C22.33 22.99 22.66 23.98 23 25 C19.70461538 23.92047745 16.43264209 22.79786197 13.1796875 21.59765625 C11.7449081 21.08561113 10.31000971 20.57389933 8.875 20.0625 C8.21113281 19.81048828 7.54726563 19.55847656 6.86328125 19.29882812 C-9.92329832 13.42802972 -28.04135477 13.56791092 -45.58618164 13.64355469 C-47.98504714 13.64276178 -50.38391251 13.64065832 -52.78277588 13.63735962 C-59.23466643 13.63227217 -65.6863946 13.64566484 -72.13825917 13.66288662 C-78.22766748 13.67788152 -84.31708325 13.67667467 -90.40650647 13.67726317 C-102.4643111 13.6789432 -114.52205501 13.69466378 -126.57983398 13.71875 C-138.25106308 13.74204671 -149.9222537 13.75618237 -161.59350586 13.75976562 C-162.67401588 13.76009978 -162.67401588 13.76009978 -163.77635438 13.76044068 C-165.22775469 13.76088332 -166.67915499 13.76132534 -168.1305553 13.76176675 C-168.84670248 13.76198631 -169.56284967 13.76220588 -170.30069828 13.7624321 C-171.01516827 13.76264808 -171.72963827 13.76286407 -172.46575886 13.7630866 C-183.63721123 13.7667938 -194.8086575 13.77814855 -205.98010312 13.7905625 C-210.01281215 13.79498101 -214.04552062 13.79842607 -218.0782311 13.80118462 C-225.06994674 13.80604943 -232.06162999 13.81621007 -239.05332947 13.83201218 C-241.36919325 13.83651575 -243.68506095 13.83936922 -246.00092888 13.84041977 C-249.17085988 13.84217987 -252.34071927 13.85009977 -255.51063538 13.85955811 C-256.41823406 13.85869162 -257.32583274 13.85782514 -258.26093441 13.8569324 C-264.55115009 13.88492967 -270.74509204 14.34361274 -277 15 C-271.39750547 11.26500365 -264.98471204 11.8506887 -258.46894836 11.84851074 C-257.0395735 11.84216213 -257.0395735 11.84216213 -255.58132237 11.83568525 C-252.39185978 11.82268113 -249.20242217 11.81663947 -246.01293945 11.81054688 C-243.72451119 11.8026025 -241.43608444 11.79421438 -239.1476593 11.78541565 C-234.22044118 11.76736665 -229.29322635 11.75234788 -224.36599159 11.73963928 C-216.57032275 11.71939959 -208.77469101 11.69174797 -200.97904968 11.66296387 C-190.04471627 11.62328356 -179.1103777 11.58632535 -168.17602539 11.55224609 C-167.13573724 11.54900189 -167.13573724 11.54900189 -166.07443317 11.54569215 C-161.15378906 11.53036994 -156.23314456 11.51517548 -151.3125 11.5 C-145.70027638 11.48268353 -140.088053 11.46529432 -134.47583008 11.44775391 C-133.43908829 11.4445156 -133.43908829 11.4445156 -132.38140223 11.44121188 C-120.83580962 11.40503078 -109.29023375 11.36502986 -97.74466294 11.32245111 C-90.00034474 11.29416938 -82.25603069 11.27054855 -74.51168692 11.25052643 C-69.68523291 11.23709539 -64.85879909 11.2196851 -60.03236198 11.20121574 C-57.80036558 11.19349015 -55.56836277 11.18740738 -53.33635712 11.18312263 C-50.27952737 11.17702752 -47.22277478 11.16495593 -44.16596985 11.15148926 C-42.85444796 11.15104528 -42.85444796 11.15104528 -41.51643068 11.15059233 C-32.28449648 11.09677554 -23.16277003 10.05146541 -14 9 C-13.67 9.99 -13.34 10.98 -13 12 C-11.35 11.67 -9.7 11.34 -8 11 C-8 11.66 -8 12.32 -8 13 C-7.13375 11.9790625 -7.13375 11.9790625 -6.25 10.9375 C-5.5075 10.298125 -4.765 9.65875 -4 9 C-1.75 9.25 -1.75 9.25 0 10 C-0.33 11.65 -0.66 13.3 -1 15 C4.28 15.99 9.56 16.98 15 18 C15.99 16.35 16.98 14.7 18 13 C18.66 12.67 19.32 12.34 20 12 C19.01 11.67 18.02 11.34 17 11 C16 10 15 9 14 8 C13.01 7.67 12.02 7.34 11 7 C10.34 7.33 9.68 7.66 9 8 C8.34 7.34 7.68 6.68 7 6 C5.68 6.66 4.36 7.32 3 8 C2.01 7.34 1.02 6.68 0 6 C-0.1875 2.875 -0.1875 2.875 0 0 Z " fill="#2492E9" transform="translate(384,7)"/>
<path d="M0 0 C3.9715004 3.65155465 6.72064774 7.44300302 9.3125 12.1875 C9.69567383 12.88383545 10.07884766 13.5801709 10.47363281 14.29760742 C18.09016081 28.38504984 23.47123878 42.37262887 27 58 C27.20625 58.82242188 27.4125 59.64484375 27.625 60.4921875 C28.18912547 64.26477661 28.10399478 68.00455589 28.0625 71.8125 C28.05798828 72.60076172 28.05347656 73.38902344 28.04882812 74.20117188 C28.03711312 76.13414761 28.01917998 78.06708393 28 80 C27.67 80 27.34 80 27 80 C26.10395632 73.95170514 25.88730557 68.1105424 26 62 C25.34 62 24.68 62 24 62 C20.91860465 56.7 20.91860465 56.7 21.3125 53.3125 C21.539375 52.549375 21.76625 51.78625 22 51 C22 50.01 22 49.02 22 48 C21.34 47.67 20.68 47.34 20 47 C20.33 44.69 20.66 42.38 21 40 C20.34 40 19.68 40 19 40 C17.98498002 38.13308826 16.98857921 36.25604656 16 34.375 C15.443125 33.33085938 14.88625 32.28671875 14.3125 31.2109375 C12.9421745 27.85853405 12.7419495 25.58045064 13 22 C12.34 22 11.68 22 11 22 C10.67 21.34 10.34 20.68 10 20 C9.38125 20.66 8.7625 21.32 8.125 22 C6 24 6 24 4 24 C3.66562724 30.24162484 4.61455124 34.23516549 7 40 C7 40.66 7 41.32 7 42 C8.32 42.33 9.64 42.66 11 43 C10.67 43.5775 10.34 44.155 10 44.75 C8.72924102 47.19883862 8.72924102 47.19883862 9 51 C9.99 51.66 10.98 52.32 12 53 C11.67 53.99 11.34 54.98 11 56 C11.33 56.66 11.66 57.32 12 58 C11.34 58 10.68 58 10 58 C10 58.99 10 59.98 10 61 C10.66 61.66 11.32 62.32 12 63 C11.01 63.99 11.01 63.99 10 65 C9.59952556 67.32275177 9.2602896 69.65739357 9 72 C8.67 72 8.34 72 8 72 C7.96559814 71.40276123 7.93119629 70.80552246 7.89575195 70.19018555 C6.64250228 49.86811067 3.86529919 29.13876549 -8 12 C-8 11.01 -8 10.02 -8 9 C-7.01 9 -6.02 9 -5 9 C-4.67 7.35 -4.34 5.7 -4 4 C-2.35 4.33 -0.7 4.66 1 5 C0.67 3.35 0.34 1.7 0 0 Z " fill="#4479F9" transform="translate(452,56)"/>
<path d="M0 0 C2.97 0 5.94 0 9 0 C6.29378928 1.80414048 3.7069025 2.98627461 0.70898438 4.20483398 C-18.51967106 12.11840785 -34.96064048 25.96951041 -45.6171875 43.9375 C-46.07351562 44.618125 -46.52984375 45.29875 -47 46 C-47.66 46 -48.32 46 -49 46 C-48.49380917 42.25418786 -47.84235245 40.48705839 -45 38 C-44.67 37.34 -44.34 36.68 -44 36 C-43.34 36 -42.68 36 -42 36 C-42 34.68 -42 33.36 -42 32 C-40.5 30.25 -40.5 30.25 -39 29 C-41.64 28.67 -44.28 28.34 -47 28 C-47.33 28.66 -47.66 29.32 -48 30 C-48 29.34 -48 28.68 -48 28 C-51.80658354 30.53772236 -52.30007406 32.83786272 -53.83984375 37.00390625 C-55 39 -55 39 -57.0546875 39.59375 C-58.01761719 39.79484375 -58.01761719 39.79484375 -59 40 C-60.25 42.91666667 -60.25 42.91666667 -61 46 C-61.33 46.66 -61.66 47.32 -62 48 C-62.66 48 -63.32 48 -64 48 C-62.65049136 43.18965468 -60.54458788 39.43778474 -57.625 35.4375 C-57.19018311 34.83542725 -56.75536621 34.23335449 -56.30737305 33.61303711 C-49.43574356 24.30798379 -41.25822004 16.07053322 -33 8 C-32.34 8.33 -31.68 8.66 -31 9 C-31.33 9.99 -31.66 10.98 -32 12 C-34.0625 12.6875 -34.0625 12.6875 -36 13 C-35.67 13.99 -35.34 14.98 -35 16 C-36.98 16.99 -36.98 16.99 -39 18 C-39 18.99 -39 19.98 -39 21 C-39 23.33333333 -39 25.66666667 -39 28 C-38.01 28 -37.02 28 -36 28 C-35.34 26.68 -34.68 25.36 -34 24 C-33.34 24 -32.68 24 -32 24 C-31.34 22.68 -30.68 21.36 -30 20 C-29.34 20 -28.68 20 -28 20 C-27.505 18.515 -27.505 18.515 -27 17 C-24.41927097 14.67734388 -23.54823932 14 -20 14 C-20 13.34 -20 12.68 -20 12 C-18.171875 10.52734375 -18.171875 10.52734375 -15.75 8.9375 C-14.96109375 8.41027344 -14.1721875 7.88304687 -13.359375 7.33984375 C-11.17360063 6.09858446 -9.4045108 5.6011277 -7 5 C-6.67 4.34 -6.34 3.68 -6 3 C-2.9375 2.375 -2.9375 2.375 0 2 C0 1.34 0 0.68 0 0 Z " fill="#16A8DD" transform="translate(81,25)"/>
<path d="M0 0 C3.74909333 1.37804512 6.93463699 3.12868292 10.3125 5.25 C28.86781808 16.17828549 49.2011727 19.09427919 70.44799805 19.20532227 C71.63953995 19.21522186 72.83108185 19.22512146 74.05873108 19.23532104 C77.28936937 19.26128076 80.52000346 19.2832348 83.75068259 19.30332303 C87.14060188 19.32537686 90.53047915 19.3526695 93.92036438 19.37937927 C100.3231818 19.42904658 106.72602288 19.47408032 113.12888604 19.51740164 C120.42528159 19.56699772 127.72163493 19.62183197 135.01798952 19.67708123 C150.01195357 19.79050206 165.00595752 19.897426 180 20 C180 20.33 180 20.66 180 21 C163.62345334 21.13052846 147.2469056 21.26092109 130.87035656 21.39115143 C123.26667925 21.45162091 115.6630023 21.51213507 108.05932617 21.57275391 C101.4330241 21.6255807 94.80672137 21.67832418 88.18041784 21.73096704 C84.67090355 21.75885141 81.16138961 21.78677788 77.65187645 21.81480408 C73.7369128 21.84606655 69.82194768 21.87714304 65.90698242 21.90820312 C64.7395752 21.91755386 63.57216797 21.9269046 62.36938477 21.9365387 C61.30507736 21.94495285 60.24076996 21.953367 59.14421082 21.96203613 C58.21780887 21.96941048 57.29140692 21.97678482 56.33693218 21.98438263 C54.5579869 21.99627106 52.77898501 22 51 22 C48.98848259 22.63106429 46.98636298 23.29373761 45 24 C45 23.34 45 22.68 45 22 C44.236875 22.165 43.47375 22.33 42.6875 22.5 C40.37602823 22.93004126 38.34534817 23 36 23 C36 21.35 36 19.7 36 18 C33.91798472 17.49453964 31.83432933 16.99583165 29.75 16.5 C28.58984375 16.2215625 27.4296875 15.943125 26.234375 15.65625 C22.89669288 14.86743548 22.89669288 14.86743548 19 15 C19 14.01 19 13.02 19 12 C17.02 12 15.04 12 13 12 C12.67 11.01 12.34 10.02 12 9 C11.401875 8.855625 10.80375 8.71125 10.1875 8.5625 C7.26429692 7.81081921 6.07110696 6.13791686 4 4 C3.01 3.67 2.02 3.34 1 3 C0.67 2.01 0.34 1.02 0 0 Z " fill="#507BE8" transform="translate(60,440)"/>
<path d="M0 0 C3.82099497 1.39826265 7.0806776 3.17549205 10.5 5.375 C11.4178125 5.96023437 12.335625 6.54546875 13.28125 7.1484375 C18.68883495 10.83118932 18.68883495 10.83118932 21 13 C21 14.32 21 15.64 21 17 C20.34 17 19.68 17 19 17 C18.67 18.65 18.34 20.3 18 22 C11.25125713 22.49381045 5.40538007 19.97454417 0 16 C-0.8125 13.8125 -0.8125 13.8125 -1 12 C-2.32 11.67 -3.64 11.34 -5 11 C-4.38125 10.401875 -3.7625 9.80375 -3.125 9.1875 C-0.86323046 6.99188856 -0.86323046 6.99188856 1 4 C1.66 4 2.32 4 3 4 C3 3.34 3 2.68 3 2 C2.01 2 1.02 2 0 2 C0 1.34 0 0.68 0 0 Z " fill="#2886F7" transform="translate(407,17)"/>
<path d="M0 0 C0.33 0 0.66 0 1 0 C0.89208293 16.83074464 0.77921012 33.66144796 0.66066074 50.49212074 C0.60571072 58.3093496 0.55229789 66.12658295 0.50268555 73.94384766 C0.45936879 80.76849045 0.41298289 87.59310481 0.36312145 94.41770303 C0.3368958 98.02115117 0.3120639 101.62459507 0.29092598 105.22807693 C0.19438486 121.50759837 -0.09309826 137.74321817 -1 154 C-1.33 154 -1.66 154 -2 154 C-2.04676044 135.10214099 -2.08200866 116.20429376 -2.10362434 97.30638885 C-2.1139285 88.53138798 -2.12797237 79.75642309 -2.15087891 70.98144531 C-2.17083914 63.33146976 -2.18372269 55.68152028 -2.18817699 48.03151941 C-2.19077991 43.98246183 -2.19687995 39.93347883 -2.21146011 35.88444519 C-2.22508566 32.06942655 -2.22921263 28.25451286 -2.22621536 24.4394722 C-2.22676331 23.04312697 -2.23071107 21.64677805 -2.23841095 20.25045395 C-2.27554647 13.16565123 -2.1525213 6.78107845 0 0 Z " fill="#17A3DE" transform="translate(21,102)"/>
<path d="M0 0 C-2.33846154 5.66153846 -2.33846154 5.66153846 -5.6875 7.375 C-6.450625 7.58125 -7.21375 7.7875 -8 8 C-8 7.01 -8 6.02 -8 5 C-8.33 5.66 -8.66 6.32 -9 7 C-15.75 7.125 -15.75 7.125 -18 6 C-18.66 6.66 -19.32 7.32 -20 8 C-20.721875 7.608125 -21.44375 7.21625 -22.1875 6.8125 C-25.01113893 5.65250517 -25.01113893 5.65250517 -27.5 7.25 C-28.325 7.8275 -29.15 8.405 -30 9 C-31.65369357 9.69822617 -33.31727014 10.37498605 -35 11 C-34.67 11.66 -34.34 12.32 -34 13 C-35.98 13.99 -37.96 14.98 -40 16 C-40 15.34 -40 14.68 -40 14 C-42.08368538 14.31014392 -44.16693668 14.6232052 -46.25 14.9375 C-47.41015625 15.11152344 -48.5703125 15.28554687 -49.765625 15.46484375 C-52.23106961 15.8727736 -54.59424562 16.33901303 -57 17 C-48.78601052 8.10242598 -32.67650802 5.12521351 -21.375 2.5 C-20.28566162 2.24500732 -19.19632324 1.99001465 -18.07397461 1.72729492 C-11.91006164 0.37622889 -6.30730336 -0.26445716 0 0 Z " fill="#08BCF2" transform="translate(130,0)"/>
<path d="M0 0 C0.598125 0.309375 1.19625 0.61875 1.8125 0.9375 C4.08956772 2.10209704 4.08956772 2.10209704 7 3 C7 2.34 7 1.68 7 1 C7.66 1 8.32 1 9 1 C9.33 1.99 9.66 2.98 10 4 C9.67 4.66 9.34 5.32 9 6 C9.928125 6.2165625 9.928125 6.2165625 10.875 6.4375 C13 7 13 7 15 8 C15 7.34 15 6.68 15 6 C17.97 6.495 17.97 6.495 21 7 C21.33 6.34 21.66 5.68 22 5 C22.5625 6.9375 22.5625 6.9375 23 9 C22.67 9.33 22.34 9.66 22 10 C22.99 10.33 23.98 10.66 25 11 C25 11.99 25 12.98 25 14 C26.32 13.67 27.64 13.34 29 13 C29 13.66 29 14.32 29 15 C29.66 15 30.32 15 31 15 C31 14.34 31 13.68 31 13 C31.66 13.33 32.32 13.66 33 14 C33 15.32 33 16.64 33 18 C35.91517292 16.92598892 37.77810176 16.22189824 40 14 C40.495 15.485 40.495 15.485 41 17 C40.67 17.66 40.34 18.32 40 19 C40.66 19.33 41.32 19.66 42 20 C41.67 20.66 41.34 21.32 41 22 C36.55847816 21.32652548 32.64416798 19.74093589 28.5625 17.9375 C27.86527832 17.63021973 27.16805664 17.32293945 26.44970703 17.00634766 C16.97736829 12.74090012 7.79051997 7.9483016 0 1 C0 0.67 0 0.34 0 0 Z " fill="#4E79EF" transform="translate(55,451)"/>
<path d="M0 0 C10.42131295 8.24010791 10.42131295 8.24010791 11.8125 14.875 C11.874375 15.90625 11.93625 16.9375 12 18 C11.01 18.33 10.02 18.66 9 19 C9 18.34 9 17.68 9 17 C8.34 17 7.68 17 7 17 C7 19.31 7 21.62 7 24 C4.875 24 4.875 24 2 23 C-4 16.60655738 -4 16.60655738 -4 13 C-1.525 13.495 -1.525 13.495 1 14 C1.02705729 12.22925083 1.04642195 10.45838289 1.0625 8.6875 C1.07410156 7.70136719 1.08570313 6.71523438 1.09765625 5.69921875 C1.12329862 2.90036151 1.12329862 2.90036151 0 0 Z " fill="#3C7BF4" transform="translate(441,43)"/>
<path d="M0 0 C0.66 0.33 1.32 0.66 2 1 C1.67 1.99 1.34 2.98 1 4 C-1.0625 4.6875 -1.0625 4.6875 -3 5 C-2.67 5.99 -2.34 6.98 -2 8 C-3.98 8.99 -3.98 8.99 -6 10 C-6 12.48349306 -5.82158241 14.73543415 -5.5 17.1875 C-5.2525 19.0746875 -5.2525 19.0746875 -5 21 C-7.97 20.67 -10.94 20.34 -14 20 C-14.33 20.66 -14.66 21.32 -15 22 C-15 21.34 -15 20.68 -15 20 C-18.80658354 22.53772236 -19.30007406 24.83786272 -20.83984375 29.00390625 C-22 31 -22 31 -24.0546875 31.59375 C-24.69664063 31.7278125 -25.33859375 31.861875 -26 32 C-27.25 34.91666667 -27.25 34.91666667 -28 38 C-28.33 38.66 -28.66 39.32 -29 40 C-29.66 40 -30.32 40 -31 40 C-29.65049136 35.18965468 -27.54458788 31.43778474 -24.625 27.4375 C-24.19018311 26.83542725 -23.75536621 26.23335449 -23.30737305 25.61303711 C-16.43574356 16.30798379 -8.25822004 8.07053322 0 0 Z " fill="#08C1F2" transform="translate(48,33)"/>
<path d="M0 0 C3.63393506 3.33531758 5.30430283 7.27609021 7.375 11.6875 C7.97272217 12.95811279 7.97272217 12.95811279 8.58251953 14.25439453 C12.14110462 21.99920926 14.7826487 29.78275694 17 38 C17.47759766 39.62615234 17.47759766 39.62615234 17.96484375 41.28515625 C20.36754661 50.22055353 20.29655675 58.8287078 20 68 C19.67 68 19.34 68 19 68 C18.10395632 61.95170514 17.88730557 56.1105424 18 50 C17.34 50 16.68 50 16 50 C12.91860465 44.7 12.91860465 44.7 13.3125 41.3125 C13.539375 40.549375 13.76625 39.78625 14 39 C14 38.01 14 37.02 14 36 C13.34 35.67 12.68 35.34 12 35 C12.33 32.69 12.66 30.38 13 28 C12.34 28 11.68 28 11 28 C9.98498002 26.13308826 8.98857921 24.25604656 8 22.375 C7.443125 21.33085938 6.88625 20.28671875 6.3125 19.2109375 C4.9421745 15.85853405 4.7419495 13.58045064 5 10 C4.34 10 3.68 10 3 10 C3 8.68 3 7.36 3 6 C2.34 6 1.68 6 1 6 C0.67 4.02 0.34 2.04 0 0 Z " fill="#5C77EE" transform="translate(460,68)"/>
<path d="M0 0 C0.33 0 0.66 0 1 0 C1 11.88 1 23.76 1 36 C1.66 36.33 2.32 36.66 3 37 C3 40 3 40 2.5 41.9375 C1.84293332 44.29419326 1.84293332 44.29419326 2 48 C1.814375 48.66 1.62875 49.32 1.4375 50 C0.82359455 52.01547982 0.82359455 52.01547982 1.625 54 C1.810625 54.99 1.810625 54.99 2 56 C1.54496094 56.59941406 1.08992188 57.19882812 0.62109375 57.81640625 C-1.14482538 60.19507804 -1.7951629 62.09177556 -2.5625 64.9375 C-3.53168594 68.39086253 -4.57095242 71.7021979 -6 75 C-6.66 75 -7.32 75 -8 75 C-8.66 76.32 -9.32 77.64 -10 79 C-9.28151601 74.76175176 -7.97833945 70.86675835 -6.5625 66.8125 C-1.09623511 50.72366827 -0.83439235 34.58147563 -0.4375 17.75 C-0.39419777 16.02212743 -0.35058025 14.29426273 -0.30664062 12.56640625 C-0.20079673 8.37768593 -0.09920366 4.18888263 0 0 Z " fill="#8B64E8" transform="translate(460,325)"/>
<path d="M0 0 C41.91 0.33 83.82 0.66 127 1 C127 1.33 127 1.66 127 2 C126.35247332 2.00423194 125.70494663 2.00846388 125.03779793 2.01282406 C109.29800407 2.11603002 93.55825838 2.22465256 77.81854439 2.33933926 C70.20700757 2.39466909 62.59546607 2.44815069 54.98388672 2.49731445 C48.35133835 2.54015924 41.71882446 2.58643796 35.08632934 2.63687855 C31.57294603 2.66347713 28.05956955 2.68833013 24.54614639 2.70907402 C20.62853688 2.73226853 16.71100863 2.76312806 12.79345703 2.79467773 C11.62245453 2.8004332 10.45145203 2.80618866 9.2449646 2.81211853 C8.18203186 2.82190735 7.11909912 2.83169617 6.0239563 2.84178162 C5.09663256 2.84823417 4.16930882 2.85468672 3.21388435 2.8613348 C0.958724 2.85796023 0.958724 2.85796023 -1 4 C-0.67 2.68 -0.34 1.36 0 0 Z " fill="#7271E9" transform="translate(113,459)"/>
<path d="M0 0 C2 2 2 2 2 5 C3.32 3.35 4.64 1.7 6 0 C6.66 0.33 7.32 0.66 8 1 C7.47679633 4.76706644 6.72611199 7.27388801 4 10 C2.68 10 1.36 10 0 10 C0 12.31 0 14.62 0 17 C-1.65 17.33 -3.3 17.66 -5 18 C-8 11.25 -8 11.25 -8 9 C-6.02 8.34 -4.04 7.68 -2 7 C-2.33 5.35 -2.66 3.7 -3 2 C-2.34 2 -1.68 2 -1 2 C-0.67 1.34 -0.34 0.68 0 0 Z " fill="#9D55FC" transform="translate(444,418)"/>
<path d="M0 0 C0.33 0 0.66 0 1 0 C1.03050619 9.91665536 1.0509424 19.83330616 1.0625 29.75 C1.06335602 30.47932739 1.06421204 31.20865479 1.06509399 31.96008301 C1.0886408 54.65418401 0.90948773 77.32085926 0 100 C-0.33 100 -0.66 100 -1 100 C-1.16824079 93.86207256 -1.32873188 87.72400852 -1.48217773 81.58569336 C-1.53540756 79.49937547 -1.59072079 77.41310962 -1.64819336 75.3269043 C-1.73063762 72.32091489 -1.80548294 69.31481541 -1.87890625 66.30859375 C-1.90594131 65.38227646 -1.93297638 64.45595917 -1.96083069 63.50157166 C-2.07454818 58.51979971 -1.73003344 53.93989297 -1 49 C-0.80347579 45.20088159 -0.74496805 41.40106901 -0.68359375 37.59765625 C-0.66281265 36.51995468 -0.64203156 35.44225311 -0.62062073 34.33189392 C-0.55553839 30.90882388 -0.49643327 27.48568088 -0.4375 24.0625 C-0.39427545 21.73371659 -0.35065993 19.4049404 -0.30664062 17.07617188 C-0.19989965 11.38419041 -0.09805853 5.69213731 0 0 Z " fill="#1996F6" transform="translate(19,256)"/>
<path d="M0 0 C2.875 -0.125 2.875 -0.125 6 0 C6.66 0.66 7.32 1.32 8 2 C9.6396875 1.443125 9.6396875 1.443125 11.3125 0.875 C12.529375 0.58625 13.74625 0.2975 15 0 C15.99 0.66 16.98 1.32 18 2 C19.65583225 2.69313908 21.32110979 3.36474424 23 4 C24.65 2.68 26.3 1.36 28 0 C29.5 1.25 29.5 1.25 31 3 C31 4.66666667 31 6.33333333 31 8 C24.0563118 8.48374025 17.76013104 6.69059021 11.0625 5 C9.90169922 4.71382813 8.74089844 4.42765625 7.54492188 4.1328125 C4.69474583 3.42906533 1.84662734 2.71794201 -1 2 C-0.67 1.34 -0.34 0.68 0 0 Z " fill="#5D76F0" transform="translate(97,472)"/>
<path d="M0 0 C2 1 2 1 2.8125 3.1875 C3.05705303 6.85579552 1.81993515 8.86971154 0 12 C0.99 12.33 1.98 12.66 3 13 C2.34 13.66 1.68 14.32 1 15 C1.350625 15.763125 1.70125 16.52625 2.0625 17.3125 C3 20 3 20 2 23 C1.34 23 0.68 23 0 23 C-0.99 25.31 -1.98 27.62 -3 30 C-3.66 30 -4.32 30 -5 30 C-5.05482724 28.45874525 -5.09316134 26.91690094 -5.125 25.375 C-5.14820313 24.51648438 -5.17140625 23.65796875 -5.1953125 22.7734375 C-4.96956551 19.56783021 -4.06053205 17.03009156 -3 14 C-2.42782867 11.54858704 -1.88655704 9.08977483 -1.375 6.625 C-1.11460938 5.37976563 -0.85421875 4.13453125 -0.5859375 2.8515625 C-0.29589844 1.44003906 -0.29589844 1.44003906 0 0 Z " fill="#12BAF0" transform="translate(5,98)"/>
<path d="M0 0 C0.66 0 1.32 0 2 0 C2.67031719 1.9570868 3.33614683 3.91571113 4 5.875 C4.556875 7.51082031 4.556875 7.51082031 5.125 9.1796875 C6 12 6 12 6 14 C7.32 14.33 8.64 14.66 10 15 C9.67 15.5775 9.34 16.155 9 16.75 C7.72924102 19.19883862 7.72924102 19.19883862 8 23 C8.99 23.66 9.98 24.32 11 25 C10.67 25.99 10.34 26.98 10 28 C10.33 28.66 10.66 29.32 11 30 C10.34 30 9.68 30 9 30 C9 30.99 9 31.98 9 33 C9.66 33.66 10.32 34.32 11 35 C10.34 35.66 9.68 36.32 9 37 C8.59952556 39.32275177 8.2602896 41.65739357 8 44 C7.67 44 7.34 44 7 44 C6.94839722 43.10414185 6.94839722 43.10414185 6.89575195 42.19018555 C6.11563653 29.5402209 4.60181551 17.71640488 1.0234375 5.54296875 C0 2 0 2 0 0 Z " fill="#5577E6" transform="translate(453,84)"/>
<path d="M0 0 C2.97 0.495 2.97 0.495 6 1 C5.5075 8.3875 5.5075 8.3875 3.1875 11.1875 C2.465625 11.785625 1.74375 12.38375 1 13 C0.360625 13.9075 -0.27875 14.815 -0.9375 15.75 C-3 18 -3 18 -5.75 18.3125 C-6.4925 18.209375 -7.235 18.10625 -8 18 C-8 18.66 -8 19.32 -8 20 C-9.32 20 -10.64 20 -12 20 C-11.75 18.125 -11.75 18.125 -11 16 C-8.9375 14.75 -8.9375 14.75 -7 14 C-7 14.99 -7 15.98 -7 17 C-3.52521521 13.98851984 -2.02956371 11.49264165 -1 7 C-1.3062434 5.66018514 -1.63451555 4.32488113 -2 3 C-1.34 2.01 -0.68 1.02 0 0 Z " fill="#9B57FA" transform="translate(430,433)"/>
<path d="M0 0 C0.80566406 0.00257812 1.61132812 0.00515625 2.44140625 0.0078125 C3.64603516 0.00394531 3.64603516 0.00394531 4.875 0 C7.00390625 0.1328125 7.00390625 0.1328125 9.00390625 1.1328125 C8.67390625 2.1228125 8.34390625 3.1128125 8.00390625 4.1328125 C7.34390625 4.1328125 6.68390625 4.1328125 6.00390625 4.1328125 C6.00390625 5.4528125 6.00390625 6.7728125 6.00390625 8.1328125 C5.34390625 8.1328125 4.68390625 8.1328125 4.00390625 8.1328125 C3.67390625 9.1228125 3.34390625 10.1128125 3.00390625 11.1328125 C2.67390625 10.4728125 2.34390625 9.8128125 2.00390625 9.1328125 C1.01390625 8.8028125 0.02390625 8.4728125 -0.99609375 8.1328125 C-0.99609375 7.4728125 -0.99609375 6.8128125 -0.99609375 6.1328125 C-2.31609375 6.4628125 -3.63609375 6.7928125 -4.99609375 7.1328125 C-5.32609375 6.4728125 -5.65609375 5.8128125 -5.99609375 5.1328125 C-5.33609375 5.1328125 -4.67609375 5.1328125 -3.99609375 5.1328125 C-3.77953125 4.17375 -3.77953125 4.17375 -3.55859375 3.1953125 C-2.73680765 0.18209679 -2.73680765 0.18209679 0 0 Z M-5.99609375 7.1328125 C-5.99609375 10.1328125 -5.99609375 10.1328125 -5.99609375 10.1328125 Z " fill="#02C2F7" transform="translate(32.99609375,52.8671875)"/>
<path d="M0 0 C-3.7421875 2.046875 -3.7421875 2.046875 -6.0625 1.625 C-6.701875 1.41875 -7.34125 1.2125 -8 1 C-8.99 1 -9.98 1 -11 1 C-12.68236471 0.37400383 -14.3523962 -0.28752268 -16 -1 C-16.33 -0.01 -16.66 0.98 -17 2 C-18.32 1.67 -19.64 1.34 -21 1 C-21 -0.32 -21 -1.64 -21 -3 C-21.66 -3 -22.32 -3 -23 -3 C-23.33 -2.34 -23.66 -1.68 -24 -1 C-24 -1.66 -24 -2.32 -24 -3 C-26.64 -3.33 -29.28 -3.66 -32 -4 C-32 -4.33 -32 -4.66 -32 -5 C-21.53256328 -7.71450318 -9.88536312 -3.38269901 0 0 Z " fill="#278AE9" transform="translate(384,6)"/>
<path d="M0 0 C2.36761181 4.04785246 2.4036956 7.74725993 2.65625 12.34375 C3.00388436 15.03001553 3.78950095 16.61805025 5 19 C5 21.33333333 5 23.66666667 5 26 C5.66 26.33 6.32 26.66 7 27 C7.484375 29.1796875 7.484375 29.1796875 7.75 31.875 C7.84796875 32.75929688 7.9459375 33.64359375 8.046875 34.5546875 C8 37 8 37 6 40 C5.18709249 36.91677396 4.37474556 33.83340049 3.5625 30.75 C3.33240234 29.87730469 3.10230469 29.00460937 2.86523438 28.10546875 C2.64287109 27.26113281 2.42050781 26.41679687 2.19140625 25.546875 C1.98717041 24.77182617 1.78293457 23.99677734 1.57250977 23.19824219 C1.28911743 22.1101123 1.28911743 22.1101123 1 21 C0.71866211 19.99646484 0.71866211 19.99646484 0.43164062 18.97265625 C-0.02570073 16.88254419 -0.11384888 15.02805217 -0.09765625 12.890625 C-0.09443359 12.13652344 -0.09121094 11.38242187 -0.08789062 10.60546875 C-0.07951172 9.82816406 -0.07113281 9.05085938 -0.0625 8.25 C-0.05798828 7.45722656 -0.05347656 6.66445313 -0.04882812 5.84765625 C-0.03708565 3.89840492 -0.01915146 1.94919262 0 0 Z " fill="#1D96F0" transform="translate(0,344)"/>
<path d="M0 0 C0 0.66 0 1.32 0 2 C1.65 1.67 3.3 1.34 5 1 C5 1.66 5 2.32 5 3 C5.86625 1.9790625 5.86625 1.9790625 6.75 0.9375 C7.4925 0.298125 8.235 -0.34125 9 -1 C11.25 -0.75 11.25 -0.75 13 0 C12.67 1.65 12.34 3.3 12 5 C12.66 5.33 13.32 5.66 14 6 C11.13797904 7.43101048 9.59393084 6.5026254 6.5625 5.625 C5.59441406 5.34914063 4.62632812 5.07328125 3.62890625 4.7890625 C1.74322123 4.2230768 -0.1322385 3.62258717 -2 3 C-3.47965926 2.85426942 -4.96403843 2.75336732 -6.44921875 2.68359375 C-7.29677734 2.64169922 -8.14433594 2.59980469 -9.01757812 2.55664062 C-9.89865234 2.51732422 -10.77972656 2.47800781 -11.6875 2.4375 C-12.58017578 2.39431641 -13.47285156 2.35113281 -14.39257812 2.30664062 C-16.59490108 2.20064647 -18.79733473 2.09857949 -21 2 C-21 1.67 -21 1.34 -21 1 C-19.93072266 0.90912109 -19.93072266 0.90912109 -18.83984375 0.81640625 C-12.39999436 0.26039951 -12.39999436 0.26039951 -6 -0.625 C-3 -1 -3 -1 0 0 Z " fill="#228EF9" transform="translate(371,17)"/>
<path d="M0 0 C0.66 0 1.32 0 2 0 C2.83362713 10.17025104 -0.21837929 19.32393367 -3 29 C-3.99 28.34 -4.98 27.68 -6 27 C-6 26.01 -6 25.02 -6 24 C-5.34 24 -4.68 24 -4 24 C-4.66 21.69 -5.32 19.38 -6 17 C-5.01 17 -4.02 17 -3 17 C-3.020625 15.88625 -3.04125 14.7725 -3.0625 13.625 C-3 10 -3 10 -2 8 C-1.34 8 -0.68 8 0 8 C-0.185625 7.05125 -0.37125 6.1025 -0.5625 5.125 C-1 2 -1 2 0 0 Z " fill="#8F5DF0" transform="translate(478,352)"/>
<path d="M0 0 C2.43122355 2.20303778 3.80002446 4.27640983 5.19140625 7.23828125 C5.77245117 8.46901367 5.77245117 8.46901367 6.36523438 9.72460938 C6.76033203 10.57861328 7.15542969 11.43261719 7.5625 12.3125 C7.96146484 13.15490234 8.36042969 13.99730469 8.77148438 14.86523438 C10.79192632 19.17933328 12.62037864 23.42860597 14 28 C13.01 28 12.02 28 11 28 C9.98498002 26.13308826 8.98857921 24.25604656 8 22.375 C7.443125 21.33085938 6.88625 20.28671875 6.3125 19.2109375 C4.9421745 15.85853405 4.7419495 13.58045064 5 10 C4.34 10 3.68 10 3 10 C3 8.68 3 7.36 3 6 C2.34 6 1.68 6 1 6 C0.67 4.02 0.34 2.04 0 0 Z " fill="#5071E2" transform="translate(460,68)"/>
<path d="M0 0 C23.265 0.495 23.265 0.495 47 1 C47 1.33 47 1.66 47 2 C46.42814972 2.01030746 45.85629944 2.02061493 45.26712036 2.03123474 C39.33014214 2.13918315 33.39331929 2.25379042 27.45654297 2.37231445 C25.23912803 2.41570078 23.02167888 2.45737308 20.80419922 2.49731445 C17.62196528 2.55492754 14.43990416 2.61864764 11.2578125 2.68359375 C10.26194122 2.70030624 9.26606995 2.71701874 8.24002075 2.73423767 C7.31921722 2.75418289 6.3984137 2.77412811 5.44970703 2.79467773 C4.6369632 2.81022202 3.82421936 2.8257663 2.98684692 2.84178162 C0.92561733 2.88102414 0.92561733 2.88102414 -1 4 C-0.67 2.68 -0.34 1.36 0 0 Z " fill="#6375E9" transform="translate(113,459)"/>
<path d="M0 0 C0.845625 0.185625 1.69125 0.37125 2.5625 0.5625 C6.28319321 1.03604277 9.307342 0.54706044 13 0 C15.4375 0.4375 15.4375 0.4375 17 1 C17 1.66 17 2.32 17 3 C14.34771188 4.07525194 11.71631546 5.09456151 9 6 C9 5.34 9 4.68 9 4 C8.236875 4.165 7.47375 4.33 6.6875 4.5 C4.37602823 4.93004126 2.34534817 5 0 5 C0 3.35 0 1.7 0 0 Z " fill="#5179FC" transform="translate(96,458)"/>
<path d="M0 0 C0.66 0 1.32 0 2 0 C1.43997169 5.56472574 -0.6345243 9.9267939 -3.0625 14.875 C-3.62807617 16.050625 -3.62807617 16.050625 -4.20507812 17.25 C-5.12993234 19.16995053 -6.06403978 21.085439 -7 23 C-8.19013327 19.42960018 -7.69950069 18.06838156 -6.6875 14.5 C-6.42324219 13.5409375 -6.15898437 12.581875 -5.88671875 11.59375 C-5 9 -5 9 -3 6 C-2.67 5.01 -2.34 4.02 -2 3 C-1.34 3 -0.68 3 0 3 C0 2.01 0 1.02 0 0 Z " fill="#915FF0" transform="translate(471,384)"/>
<path d="M0 0 C0 1.98 0 3.96 0 6 C-0.99 6 -1.98 6 -3 6 C-3.33 6.66 -3.66 7.32 -4 8 C-7.29418194 9.22006738 -10.52365235 9.0790079 -14 9 C-11.69806101 6.53522288 -9.24011346 4.68244803 -6.4375 2.8125 C-5.65246094 2.28269531 -4.86742187 1.75289063 -4.05859375 1.20703125 C-2 0 -2 0 0 0 Z " fill="#9B57FB" transform="translate(424,439)"/>
<path d="M0 0 C2 1 2 1 2.8125 3.1875 C3.05705303 6.85579552 1.81993515 8.86971154 0 12 C0.99 12.33 1.98 12.66 3 13 C2.319375 13.6496875 2.319375 13.6496875 1.625 14.3125 C-0.20024334 16.10798342 -0.20024334 16.10798342 -2 19 C-4 16 -4 16 -3.3203125 12.20703125 C-2.93495648 10.73869192 -2.53597227 9.27387656 -2.125 7.8125 C-1.92519531 7.06291016 -1.72539063 6.31332031 -1.51953125 5.54101562 C-1.02458964 3.69087675 -0.51379524 1.844992 0 0 Z " fill="#18B7ED" transform="translate(5,98)"/>
<path d="M0 0 C0.97591583 3.38317487 0.85856655 5.5657338 0 9 C-0.66 9 -1.32 9 -2 9 C-2 9.66 -2 10.32 -2 11 C-1.34 11 -0.68 11 0 11 C0 11.66 0 12.32 0 13 C-0.639375 13.103125 -1.27875 13.20625 -1.9375 13.3125 C-2.9584375 13.6528125 -2.9584375 13.6528125 -4 14 C-4.33 14.99 -4.66 15.98 -5 17 C-5.66 17 -6.32 17 -7 17 C-6.37954537 12.76677156 -4.89476441 9.47709705 -2.9375 5.6875 C-2.38964844 4.61886719 -1.84179688 3.55023438 -1.27734375 2.44921875 C-0.64505859 1.23685547 -0.64505859 1.23685547 0 0 Z " fill="#16BBE7" transform="translate(16,73)"/>
<path d="M0 0 C0 3.39832192 -0.77984413 5.08726829 -2.25 8.125 C-2.87648438 9.45917969 -2.87648438 9.45917969 -3.515625 10.8203125 C-5.27637045 13.40582818 -6.05690117 13.41379756 -9 14 C-10.25 16.91666667 -10.25 16.91666667 -11 20 C-11.33 20.66 -11.66 21.32 -12 22 C-12.66 22 -13.32 22 -14 22 C-12.58296087 16.75051414 -10.18601575 13.04656981 -7 8.75 C-6.54882812 8.12609375 -6.09765625 7.5021875 -5.6328125 6.859375 C-3.86310637 4.42995594 -2.12833841 2.12833841 0 0 Z " fill="#1EB6E1" transform="translate(31,51)"/>
<path d="M0 0 C0 3.71453101 -0.81255277 5.02086162 -3 8 C-5.7421875 9.94921875 -5.7421875 9.94921875 -8.875 11.6875 C-10.41800781 12.55955078 -10.41800781 12.55955078 -11.9921875 13.44921875 C-14.62477432 14.80653949 -17.22883233 15.96209034 -20 17 C-17.08749331 13.92302235 -14.02952178 11.49085783 -10.5625 9.0625 C-6.66780786 6.27685789 -3.21171887 3.54396565 0 0 Z " fill="#8B65DF" transform="translate(431,429)"/>
<path d="M0 0 C-0.33 1.65 -0.66 3.3 -1 5 C-2.32 4.67 -3.64 4.34 -5 4 C-5 2.68 -5 1.36 -5 0 C-5.66 0 -6.32 0 -7 0 C-7.33 0.66 -7.66 1.32 -8 2 C-8 1.34 -8 0.68 -8 0 C-10.64 -0.33 -13.28 -0.66 -16 -1 C-16 -1.33 -16 -1.66 -16 -2 C-10.12752736 -3.55447805 -5.47340424 -2.41473716 0 0 Z " fill="#2496ED" transform="translate(368,3)"/>
<path d="M0 0 C1.98 0.99 1.98 0.99 4 2 C3.67 2.99 3.34 3.98 3 5 C3.33 5.66 3.66 6.32 4 7 C3.34 7 2.68 7 2 7 C2 7.99 2 8.98 2 10 C2.66 10.66 3.32 11.32 4 12 C3.34 12.66 2.68 13.32 2 14 C1.59952556 16.32275177 1.2602896 18.65739357 1 21 C0.67 21 0.34 21 0 21 C0 14.07 0 7.14 0 0 Z " fill="#5877F5" transform="translate(460,107)"/>
<path d="M0 0 C0.99 0.33 1.98 0.66 3 1 C1.25579087 2.32018588 -0.49560091 3.63088602 -2.25 4.9375 C-3.22453125 5.66839844 -4.1990625 6.39929688 -5.203125 7.15234375 C-7.6267881 8.75345079 -9.1757492 9.57636238 -12 10 C-11.34 8.68 -10.68 7.36 -10 6 C-9.01 6 -8.02 6 -7 6 C-6.67 4.35 -6.34 2.7 -6 1 C-3.03 1.495 -3.03 1.495 0 2 C0 1.34 0 0.68 0 0 Z " fill="#935CF0" transform="translate(422,451)"/>
<path d="M0 0 C3.85025879 0.60355408 6.86101159 1.76772603 10.3125 3.5625 C11.19550781 4.01753906 12.07851563 4.47257813 12.98828125 4.94140625 C13.65214844 5.29074219 14.31601562 5.64007813 15 6 C15 6.33 15 6.66 15 7 C12.1875 7.6875 12.1875 7.6875 9 8 C7.3125 6.625 7.3125 6.625 6 5 C5.01 4.67 4.02 4.34 3 4 C2.01 4.495 2.01 4.495 1 5 C0.67 3.35 0.34 1.7 0 0 Z " fill="#2E87E7" transform="translate(392,10)"/>
<path d="M0 0 C0.556875 0.185625 1.11375 0.37125 1.6875 0.5625 C3.99236654 1.15120788 3.99236654 1.15120788 6.25 0.53125 C9.33312387 -0.06435348 12.17503694 -0.09697762 15.3125 -0.0625 C16.91544922 -0.04896484 16.91544922 -0.04896484 18.55078125 -0.03515625 C19.35902344 -0.02355469 20.16726563 -0.01195312 21 0 C17.05688666 2.52274456 12.79179211 2.66554839 8.25 3.125 C7.45722656 3.21136719 6.66445313 3.29773438 5.84765625 3.38671875 C3.89916859 3.59800054 1.94967024 3.79992467 0 4 C0 2.68 0 1.36 0 0 Z " fill="#8D64E6" transform="translate(352,476)"/>
<path d="M0 0 C0.66 0.33 1.32 0.66 2 1 C1.67 1.99 1.34 2.98 1 4 C-1.0625 4.6875 -1.0625 4.6875 -3 5 C-2.67 5.99 -2.34 6.98 -2 8 C-3.28524261 8.86380259 -4.57842419 9.71580369 -5.875 10.5625 C-6.59429687 11.03816406 -7.31359375 11.51382813 -8.0546875 12.00390625 C-8.69664063 12.33261719 -9.33859375 12.66132812 -10 13 C-10.66 12.67 -11.32 12.34 -12 12 C-8.04 8.04 -4.08 4.08 0 0 Z " fill="#17B7E2" transform="translate(48,33)"/>
<path d="M0 0 C1.98 0 3.96 0 6 0 C6 2.64 6 5.28 6 8 C4.35 7.67 2.7 7.34 1 7 C0.31292445 4.50935112 0 2.62113708 0 0 Z " fill="#04BEF4" transform="translate(24,72)"/>
<path d="M0 0 C1.98 0.66 3.96 1.32 6 2 C5.67 2.66 5.34 3.32 5 4 C2.71484375 4.4140625 2.71484375 4.4140625 -0.0625 4.625 C-0.98160156 4.69976562 -1.90070313 4.77453125 -2.84765625 4.8515625 C-3.91306641 4.92503906 -3.91306641 4.92503906 -5 5 C-5.66 3.68 -6.32 2.36 -7 1 C-4.66666667 1 -2.33333333 1 0 1 C0 0.67 0 0.34 0 0 Z " fill="#965AFB" transform="translate(368,472)"/>
<path d="M0 0 C0.66 0 1.32 0 2 0 C0.50923566 3.2826932 -1.38620321 5.93077441 -3.625 8.75 C-4.57246094 9.94882812 -4.57246094 9.94882812 -5.5390625 11.171875 C-6.02117187 11.77515625 -6.50328125 12.3784375 -7 13 C-7.66 12.67 -8.32 12.34 -9 12 C-8.8125 9.625 -8.8125 9.625 -8 7 C-6.34561387 6.30341637 -4.67745682 5.63903117 -3 5 C-1.94895617 3.36504293 -0.94011682 1.70116376 0 0 Z " fill="#905DE8" transform="translate(452,421)"/>
<path d="M0 0 C-0.93590504 1.1055189 -1.87379858 2.20935453 -2.8125 3.3125 C-3.59560547 4.23482422 -3.59560547 4.23482422 -4.39453125 5.17578125 C-5.87172469 6.85424679 -7.40039131 8.43882034 -9 10 C-9.66 9.67 -10.32 9.34 -11 9 C-9.625 7 -9.625 7 -8 5 C-7.34 5 -6.68 5 -6 5 C-6.33 3.68 -6.66 2.36 -7 1 C-4.53721199 -0.231394 -2.7204945 -0.07159196 0 0 Z " fill="#955BED" transform="translate(441,437)"/>
<path d="M0 0 C1.9453125 0.69140625 1.9453125 0.69140625 4 2 C4.6796875 4.27734375 4.6796875 4.27734375 4.875 6.9375 C4.95492188 7.81277344 5.03484375 8.68804687 5.1171875 9.58984375 C5 12 5 12 3 15 C2.49363393 13.25183142 1.99515381 11.50137737 1.5 9.75 C1.2215625 8.77546875 0.943125 7.8009375 0.65625 6.796875 C0 4 0 4 0 0 Z " fill="#288EE7" transform="translate(3,369)"/>
<path d="M0 0 C-0.33 0.66 -0.66 1.32 -1 2 C-6.86837163 3.21256802 -13.03197826 3.11051892 -19 3 C-19 2.67 -19 2.34 -19 2 C-12.53205867 0.48766299 -6.64409958 -0.21432579 0 0 Z " fill="#21BAEB" transform="translate(130,0)"/>
<path d="M0 0 C1.07765625 0.01804687 2.1553125 0.03609375 3.265625 0.0546875 C4.49539062 0.08949219 4.49539062 0.08949219 5.75 0.125 C2.33788584 2.39974277 0.0931471 2.69129644 -3.9375 3.25 C-5.11699219 3.41757812 -6.29648438 3.58515625 -7.51171875 3.7578125 C-8.41535156 3.87898438 -9.31898437 4.00015625 -10.25 4.125 C-10.25 3.465 -10.25 2.805 -10.25 2.125 C-6.7733662 -0.01836161 -4.03770805 -0.08777626 0 0 Z " fill="#1AABE5" transform="translate(100.25,20.875)"/>
<path d="M0 0 C1.5 1.25 1.5 1.25 3 3 C3 4.66666667 3 6.33333333 3 8 C0.69 8 -1.62 8 -4 8 C-3.34 7.67 -2.68 7.34 -2 7 C-0.66666667 4 -0.66666667 4 -2 1 C-1.34 0.67 -0.68 0.34 0 0 Z " fill="#627AFA" transform="translate(125,472)"/>
<path d="M0 0 C3.40320742 1.01176437 4.75725331 1.64843582 6.8125 4.625 C7.204375 5.40875 7.59625 6.1925 8 7 C5.69 6.67 3.38 6.34 1 6 C0.67 4.02 0.34 2.04 0 0 Z " fill="#2190F7" transform="translate(7,384)"/>
<path d="M0 0 C0.66 0.33 1.32 0.66 2 1 C1.67 1.66 1.34 2.32 1 3 C0.34 3 -0.32 3 -1 3 C-1.33 3.99 -1.66 4.98 -2 6 C-4.64 6 -7.28 6 -10 6 C-6.87511433 3.47605388 -3.68685613 1.60298093 0 0 Z " fill="#8F63E5" transform="translate(409,446)"/>
<path d="M0 0 C0.33 0 0.66 0 1 0 C1.06058594 0.77085937 1.12117188 1.54171875 1.18359375 2.3359375 C1.26738281 3.33882813 1.35117187 4.34171875 1.4375 5.375 C1.55931641 6.87160156 1.55931641 6.87160156 1.68359375 8.3984375 C1.84965626 10.97927613 1.84965626 10.97927613 3 13 C1.68 14.65 0.36 16.3 -1 18 C-0.505 9.09 -0.505 9.09 0 0 Z " fill="#8661E2" transform="translate(459,362)"/>
<path d="M0 0 C0.66 0 1.32 0 2 0 C2.18451025 10.55808656 2.18451025 10.55808656 1 15 C0.67 15 0.34 15 0 15 C-0.19448477 12.87562788 -0.38038289 10.75046809 -0.5625 8.625 C-0.66691406 7.44164062 -0.77132813 6.25828125 -0.87890625 5.0390625 C-1 2 -1 2 0 0 Z " fill="#9069E9" transform="translate(478,352)"/>
<path d="M0 0 C2.00720923 0.28674418 4.0085944 0.61866701 6 1 C6 1.66 6 2.32 6 3 C3.34771188 4.07525194 0.71631546 5.09456151 -2 6 C-1.125 1.125 -1.125 1.125 0 0 Z " fill="#506DF1" transform="translate(107,458)"/>
<path d="M0 0 C-0.33 0.66 -0.66 1.32 -1 2 C-3.3260857 2.38063221 -5.66055264 2.71269945 -8 3 C-8.99 3.495 -8.99 3.495 -10 4 C-10.66 3.67 -11.32 3.34 -12 3 C-12 2.34 -12 1.68 -12 1 C-10.56496445 0.63597631 -9.12683494 0.28413409 -7.6875 -0.0625 C-6.88699219 -0.25972656 -6.08648437 -0.45695312 -5.26171875 -0.66015625 C-3 -1 -3 -1 0 0 Z " fill="#9A56F2" transform="translate(405,452)"/>
<path d="M0 0 C1.485 0.99 1.485 0.99 3 2 C3 5 3 5 2.5 6.9375 C1.84293332 9.29419326 1.84293332 9.29419326 2 13 C1.34 13 0.68 13 0 13 C0 8.71 0 4.42 0 0 Z " fill="#925DF5" transform="translate(460,360)"/>
<path d="M0 0 C2.61500768 2.36595933 4.38999603 4.86049226 6 8 C5.67 8.66 5.34 9.32 5 10 C2.36 7.36 -0.28 4.72 -3 2 C-2.01 1.34 -1.02 0.68 0 0 Z " fill="#397DE7" transform="translate(429,44)"/>
<path d="M0 0 C-3.23507998 4.4114727 -6.84557192 4.84694558 -11.953125 5.703125 C-12.62859375 5.80109375 -13.3040625 5.8990625 -14 6 C-11.72698066 3.45655714 -9.54913519 2.12383563 -6.4375 0.75 C-5.65246094 0.39421875 -4.86742188 0.0384375 -4.05859375 -0.328125 C-2 -1 -2 -1 0 0 Z " fill="#1EB0E0" transform="translate(87,11)"/>
<path d="M0 0 C4.39683488 1.19913678 7.09840934 2.4288115 10 6 C10 6.66 10 7.32 10 8 C6.05205855 6.32971708 3.18203882 3.8204435 0 1 C0 0.67 0 0.34 0 0 Z " fill="#4179E2" transform="translate(45,443)"/>
<path d="M0 0 C3.64419572 0.98491776 4.78914132 1.65826352 6.8125 4.9375 C8 8 8 8 8 11 C6.66375099 9.35653302 5.33107149 7.71016314 4 6.0625 C3.2575 5.14597656 2.515 4.22945313 1.75 3.28515625 C0 1 0 1 0 0 Z " fill="#3780E4" transform="translate(24,419)"/>
<path d="M0 0 C0.99 0 1.98 0 3 0 C3 0.66 3 1.32 3 2 C3.66 2 4.32 2 5 2 C5 2.66 5 3.32 5 4 C2.36 4.33 -0.28 4.66 -3 5 C-1.125 1.125 -1.125 1.125 0 0 Z " fill="#06C0F5" transform="translate(87,10)"/>
<path d="M0 0 C0.33 0.66 0.66 1.32 1 2 C0.00390625 4.3828125 0.00390625 4.3828125 -1.4375 7.125 C-1.91058594 8.03507812 -2.38367188 8.94515625 -2.87109375 9.8828125 C-3.24363281 10.58148438 -3.61617188 11.28015625 -4 12 C-5.25541557 8.23375329 -4.37061958 6.62811066 -3 3 C-2.34 3 -1.68 3 -1 3 C-0.67 2.01 -0.34 1.02 0 0 Z " fill="#8D61E2" transform="translate(468,395)"/>
<path d="M0 0 C1.32 0.33 2.64 0.66 4 1 C4.91892116 4.67568464 4.95904856 6.16380575 4 10 C2.68 6.7 1.36 3.4 0 0 Z " fill="#4C79E4" transform="translate(448,73)"/>
<path d="M0 0 C0 0.66 0 1.32 0 2 C-2.75 4.1875 -2.75 4.1875 -6 6 C-8.203125 5.61328125 -8.203125 5.61328125 -10 5 C-8.71186658 4.16121545 -7.41936744 3.32913217 -6.125 2.5 C-5.40570313 2.0359375 -4.68640625 1.571875 -3.9453125 1.09375 C-2 0 -2 0 0 0 Z " fill="#1FB1DE" transform="translate(73,17)"/>
<path d="M0 0 C0 3.64478912 -0.85802506 5.09303401 -3 8 C-5.109375 8.6484375 -5.109375 8.6484375 -7 9 C-6.02180976 7.68677212 -5.0424189 6.37443848 -4.0625 5.0625 C-3.51722656 4.33160156 -2.97195313 3.60070312 -2.41015625 2.84765625 C-1 1 -1 1 0 0 Z " fill="#925FEA" transform="translate(431,429)"/>
<path d="M0 0 C0 3.57575896 -1.08840607 5.05295935 -3 8 C-3.66 6.68 -4.32 5.36 -5 4 C-3 1 -3 1 0 0 Z " fill="#8E5EED" transform="translate(462,407)"/>
<path d="M0 0 C2.18975773 3.28463659 2.99806563 6.20696275 4 10 C2 10 2 10 0.3125 8.9375 C-1 7 -1 7 -0.6875 3.3125 C-0.460625 2.219375 -0.23375 1.12625 0 0 Z " fill="#5B74E0" transform="translate(473,96)"/>
<path d="M0 0 C2.97 0 5.94 0 9 0 C6.09907498 1.93395001 5.10325263 2.30131941 1.8125 2.625 C0.554375 2.74875 -0.70375 2.8725 -2 3 C-1.34 2.67 -0.68 2.34 0 2 C0 1.34 0 0.68 0 0 Z " fill="#10ACE4" transform="translate(81,25)"/>
<path d="M0 0 C1.65 0 3.3 0 5 0 C4.67 1.65 4.34 3.3 4 5 C2.68 4.67 1.36 4.34 0 4 C0 2.68 0 1.36 0 0 Z " fill="#1694FC" transform="translate(363,3)"/>
<path d="M0 0 C-1.28524261 0.86380259 -2.57842419 1.71580369 -3.875 2.5625 C-4.59429687 3.03816406 -5.31359375 3.51382812 -6.0546875 4.00390625 C-6.69664062 4.33261719 -7.33859375 4.66132813 -8 5 C-8.66 4.67 -9.32 4.34 -10 4 C-7.26634436 -0.10048346 -4.7993062 -1.59976873 0 0 Z " fill="#8B61E5" transform="translate(420,456)"/>
<path d="M0 0 C1.65 1.65 3.3 3.3 5 5 C4.67 5.66 4.34 6.32 4 7 C2.35 6.67 0.7 6.34 -1 6 C-0.34 5.67 0.32 5.34 1 5 C0.67 3.35 0.34 1.7 0 0 Z " fill="#467AE9" transform="translate(452,56)"/>
<path d="M0 0 C0.99 1.32 1.98 2.64 3 4 C2.01 4.66 1.02 5.32 0 6 C-1.32 5.34 -2.64 4.68 -4 4 C-3.67 3.34 -3.34 2.68 -3 2 C-2.34 2 -1.68 2 -1 2 C-0.67 1.34 -0.34 0.68 0 0 Z " fill="#02C6F8" transform="translate(5,113)"/>
<path d="M0 0 C0.66 0 1.32 0 2 0 C2.33 2.97 2.66 5.94 3 9 C0.86928411 6.40608501 -0.53582673 4.36525621 -1 1 C-0.67 0.67 -0.34 0.34 0 0 Z " fill="#5277F5" transform="translate(466,81)"/>
<path d="M0 0 C0.66 0 1.32 0 2 0 C1.01 3.3 0.02 6.6 -1 10 C-1.33 10 -1.66 10 -2 10 C-2 7.69 -2 5.38 -2 3 C-1.34 3 -0.68 3 0 3 C0 2.01 0 1.02 0 0 Z " fill="#1CA6D8" transform="translate(27,80)"/>
<path d="M0 0 C0.33 0.66 0.66 1.32 1 2 C2.65 1.67 4.3 1.34 6 1 C6 2.65 6 4.3 6 6 C3.11562221 4.70700306 1.12780579 3.34058637 -1 1 C-0.67 0.67 -0.34 0.34 0 0 Z " fill="#3283EA" transform="translate(418,37)"/>
<path d="M0 0 C-3.08888522 2.05925681 -3.70935927 2.2390374 -7.1875 2.125 C-9.0746875 2.063125 -9.0746875 2.063125 -11 2 C-6.98764085 -0.6749061 -4.6342454 -1.48957888 0 0 Z " fill="#1AB3DF" transform="translate(107,5)"/>
<path d="M0 0 C0.99 0 1.98 0 3 0 C2.43628586 3.26954202 1.50037734 4.82575883 -1 7 C-0.67 4.69 -0.34 2.38 0 0 Z " fill="#955AF9" transform="translate(459,378)"/>
<path d="M0 0 C0.66 0.33 1.32 0.66 2 1 C2.1875 3.375 2.1875 3.375 2 6 C1.01 6.66 0.02 7.32 -1 8 C-0.67 5.36 -0.34 2.72 0 0 Z " fill="#06BAF4" transform="translate(2,125)"/>
<path d="M0 0 C1.98 0.99 1.98 0.99 4 2 C3.01 2.66 2.02 3.32 1 4 C0.67 2.68 0.34 1.36 0 0 Z M-2 3 C-1.34 3.33 -0.68 3.66 0 4 C0 4.66 0 5.32 0 6 C-1.32 5.67 -2.64 5.34 -4 5 C-3.34 4.34 -2.68 3.68 -2 3 Z " fill="#2E80EE" transform="translate(424,28)"/>
</svg>
